<mxfile host="app.diagrams.net" modified="2023-01-25T19:33:21.523Z" agent="5.0 (Windows NT 10.0; Win64; x64) AppleWebKit/537.36 (KHTML, like Gecko) Chrome/109.0.0.0 Safari/537.36 Edg/109.0.1518.61" etag="JNljhmVvP2eZhZHPrnih" version="20.8.11" type="github">
  <diagram id="Lg_MTVAL6K26eBcUn0nL" name="第 1 页">
    <mxGraphModel dx="2267" dy="1156" grid="1" gridSize="10" guides="1" tooltips="1" connect="1" arrows="1" fold="1" page="1" pageScale="1" pageWidth="827" pageHeight="1169" math="0" shadow="0">
      <root>
        <mxCell id="0" />
        <mxCell id="1" parent="0" />
        <mxCell id="KGkWQbCxPJ3QOzRnx_q6-1" value="" style="shape=image;verticalLabelPosition=bottom;labelBackgroundColor=default;verticalAlign=top;aspect=fixed;imageAspect=0;image=data:image/png,iVBORw0KGgoAAAANSUhEUgAAAwMAAABuCAYAAAB7oM86AAAgAElEQVR4nOydd3wURfvAv7vX0gtpJAQIvUPovYiKKCihCkpHEFBEpfx8ba+ACCiIFEFQ6dIVRAREitIRpfeeCiE9uZa7293fHyH7EimGkBjQ/X4+YnZ3dp65u9nZeWaeIiiKoqChoaGhoaGhoaGh8a9DLO4GaGhoaGhoaGhoaGgUD5oyoKGhoaGhoaGhofEvRVMGNDQ0NDQ0NDQ0NP6laMqAhoaGhoaGhoaGxr+UR0oZSE5O5umnn2bHjh1FLuvq1askJSUVuRwNDQ0NDQ0NDQ2N4uKRUgbsdjvbtm3j2rVrRSrn2rVrtG3blujo6CKVo6GhoaGhoaGhoVGc6Iu7AQ9CQkICBoMBs9lMdHQ0QUFBVKlSBb1ej81m4+rVq4SHh3P69GmcTie1atXC19cXRVGIj4/H09MTf39/ADIzM7l+/TqlSpXi3LlzWK1WLl++TJ06dTAYDMX8STU0NDQ0NDQ0NDQKn0daGZg5cybnz58nPj4egJSUFMaMGcPLL7/M+fPn6d27Nw0aNCA+Pp7k5GQiIiKYMWMGYWFhTJ06lSZNmtCzZ08ADhw4wAcffMDMmTP55JNPSE9PZ/LkybRq1YqSJUsW58fU0NDQ0NDQ0NDQKBIeKTOhP5OYmMj58+dZtGgR+/bto1+/frzzzjsoikJ2djYxMTHodDp++OEHDh48SGZmJt988w2Q439gNpvVumw2G3FxcYSFhTFnzhyCgoKYP3++pghoaGhoaGhoaGj8Y3mklQGAli1bUrFiRXQ6HZGRkTidTmw2m3p92LBhmEwmDAYDffv25eeffy7G1mpoaGhoaGhoaGg8PDzyyoCHh4dq0280GhFFEUmS1Ovly5dX/y5RogQZGRnqsaIo6t+yLP8NrdXQ0NDQ0NDQ0NB4eHjklQFBEO55PSYmRv07MTGRgIAAAHQ6HdnZ2Xmu5bdODQ0NDQ0NDQ0NjX8Cj7wy8FdMmzaNCxcu8Mcff7BkyRKioqIQBIHSpUuzZcsWzp49y/79+1m7dq16j8lkwmq1cujQoTwmRxoaGhoaGhoaGhr/JP7xyoAsy7Ro0YLHH3+cevXq0bt3b0RR5Pnnn+fatWs0a9aM/v378/TTT6v3BAUFUa9ePUaPHs1vv/1WjK3X0NDQ0NDQ0NDQKDoE5VbD+X8Qv/32G08++SQHDx7E19cXg8FAYGBgnjJOp5O4uDgCAwPx9vbOc02SJKxWK56enojiP15nuiM2l4sFR45wKTW1uJui8YB4GgxMaNu2uJvx0HIhNZW5hw4VdzM0CoGm4eF0qVYN3b903M4PyVYri44eJSErq7ibovGAmHQ6Jj3xRHE3Q+MR55HOM5AfRFEkNDT0jtcMBgPlypW74zWdTnebgvBvw+FysebUKSJLliTUy6u4m6NRQOKzslhx8qSmDNyD2IwMNp47R89atfDUkgw+shyMj8ficNCpalV0xd2Yh5h0u51lx4/TuWpV3PT/+GnAP5aLaWl8c/aspgxoPDD/2FEgMDCQXr164ePjU9xNKTSsVisXL17MEy0pP/j5+d1V6ckPA+rWpXZwcIHv1yhejly/zt5bHOnvF7vdzpkzZ+77vpCQEMLCwgok88KFC3nygOQHURSpU6dOgeQBRPj5MaJRIwI9PApch0bxMv/wYQ4nJDxQHU6nkytXrmCxWO7rPqPRSNWqVdHp7l8NSUpKIi4u7r7vK1WqFMEPMDaPbNwYXze3At+vUbzsuHqVny9dKvD9Fy9eJOs+d4f0ej21atUqkDyLxcL58+fv+76SJUvedVFXo3D4xyoD5cuX54svvijuZhQqp0+fJioqiuDg4HybLsXExNCyZUu+/fbbAssV0CIsPco86C93+fJlmjdvToUKFTCZTH9ZXlEU4uPj6devH1OmTCmQzCFDhnD58mWCgoLyVd5sNpOYmEhaWlqB5OUiCILW1x9hCuOXS05OZtCgQWRmZqphq/+KtLQ0ZFnm6NGj+Pr63rfMFStW8OGHH1KmTJl833PmzBnGjx/PqFGj7lteLlp/f7R50F/u5Zdf5uLFi/keZy0WC1lZWQVSXAGOHDnCM888Q/ny5dHnY0dKURRiYmIYNmwY48ePL5DM/OB0OklKSsLlcqnndDodfn5+eHp6FooMWZZJTk7Gx8cHg8FAcnIyfn5++Xqn5pKeno6iKPj5+RX6c/uPVQb+qYSHh/PFF1/gls/VnPHjx+cJoaqhURDKli3LZ599RqlSpf6yrCzLTJ069YHk6fV6Bg4cyPPPP5+v8ocPH+bdd999IJkaGrcyZ84cNRT1X7F161amT5/+QPKeeOIJ3n///XyX79Sp0wPJ09AwGAwMGjSIHj165Kv8iRMnmDhx4gPJrFmzJtOnT8+X0ixJUpEqAbnExcUxZsyYPKHo9Xo9oaGhvPnmmzRv3vyBZWRmZjJ+/Hj69u1LuXLlePfddxk5ciQ1a9a86z0ul4tvv/2WunXrUrlyZVasWIHdbmfEiBH5UqbuB00ZeMQwGAyEhYXh7u6er/Kenp6aMqDxwBgMBkJCQvKlDEiShNcD+pgIgoCfn1++5AHExsYWyDxDQ+NulCxZMt8mOCVKlHhgeZ6envnu70ChTwY0/n3c7zibmJj4wOOsyWQiNDQUf3//vywrSVKhrczfC5vNxokTJxg9ejTNmjVDURRSU1OZOnUqHTp0IDY29oF9SJ1OJ+fOnSMzMxN3d3fatWt3W1CbP3P9+nWGDx/Ohg0bqFy5MpGRkbhcriIJaqONJhoaGhoaGhoaGv9qIiIiqFGjhnosiiL79+9n165d1KlTh+joaDw8PLh48SItW7YkMDCQ06dPc/r0aQRBoGrVqnn81pKTk9m3bx9ZWVkEBQWp/p56vZ7w8HDVwsPpdHLo0CFiYmIwGAzUqVOHsLAwDh48iNPpZN++fdSqVYsSJUogSRKCICDLMpcuXeLo0aM4nU7KlClD06ZN0el02Gw2du3aRYUKFTh58iQWi0Vt290WEYpcGTh16hRz584tajGPDNWqVeOVV14p7mZoaGhoaGhoaGjcBbvdjiRJmEwmdu/ezZQpUzCZTLhcLmrVqsWxY8d4++23adSoEYIgMG3aNP7v//6Prl27Yjab6d27Ny6Xi4YNG3Lo0CFOnDgB5PgYffDBB3z44YfUq1ePzz//nNmzZ/PUU0+RlZXFpEmTmDRpEseOHcPpdHL06FHMZjOrV6/GZrMxbtw4jh07xogRI6hYsSL+/v58+umnPPbYY0yZMoWkpCRefPFFGjVqRKlSpcjKymLixIksWbKEBg0a3PGzFrkyEB0djU6nY+DAgUUt6qHnwoULLFmyRFMGNDQ0NDQ0NDQeIo4cOYIoisiyzJUrV5g7dy6lSpWiTZs2LF++nHPnzvHtt9/yzDPPADB06FAGDhyozunmzZvH0KFDad26NUuXLuXMmTPs2bOH0qVLc+zYMR5//HEgx6/OYrEgSRIXL15kwYIFzJ49m/bt26MoClFRUezZs4fBgwfz+eefM3z4cMLCwrDb7dhsNgCmTJlC06ZN+eSTT9DpdGzZsoUOHTrw9NNPU6FCBTIyMnjssccYPXo0FouF/v37s3HjxuJTBgDCwsIeKOTfPwVRFP+1Ccw0NDQ0NDQ0NB5WVq9ezY4dOwBUu/6hQ4eqpjU6nU6d0FutVk6cOEFkZCSzZs0CckIE2+12Tp48ya5du6hXrx6lS5cGcubBkZGRt8lMSEjA5XLx1FNPATl+HN988w0mk4nExMS7tvXIkSO88MILqg/Hk08+ia+vL7/99hsVKlTAaDRSt25dBEHAZDJRqlQpMjMz71qf5jNwH9yarFlSBEScCKKMQ5aRMCAqOnSKBIKIILsQAElnQBYFDMgoOIF/ZMJnDQ0NDQ0NDY1Hlrfeeos2bdogCAJ6vR5PT888NvZubm5qKNDcFXpFUbBarUBOEIBx48YRHh6OxWLJ45it1+vxuEMOG6fTidFozBMqND8BOLKzs/OEJdXpdHh4eOBwOIAcpeLWqJN6vR5Zlu9an6YM5JNbFQEAhJxzksuBjIigF5GdMpIzG8kF7iY9Or2ILAoogHLzXw0NDQ0NDQ0NjYcLX1/fe0b4uXXC7u/vj7+/P+3ataNDhw5ATk6eLVu2UKJECapXr87evXux2+24ublhNpu5fv36HWVaLBZSUlLUUMazZs0iIyODF154AbjD/JOcpJ4xMTEoioIgCMTHx5OQkEDZsmUL9Nk1ZaCA6ABBFBBFAygCDsmFQRDYu3cX3j5BVKxUAV8/b3SKjCiI5KgDgqYOaGhoaGhoaGg8woiiyPPPP8+0adOwWq0YjUa+/PJLFEWhT58+DB48mK1bt/LRRx/RtGlTtm3bxrlz526rp0qVKjRq1IgBAwaoyQ5nzJjBxIkT8ff3x+FwsHbtWipUqJDnvkGDBrF48WI8PDwICAhgxYoVNGjQgHbt2qm7A/eDpgwUFAFkWUKWZQRRh06WcNrMbPluBc3btKdiudLIkoROrwAuJERkNH8BDQ0NDQ0NDY2HBR8fH9q3b09ISMhdy0RERNyW6G/MmDEsWbKEL7/8EkEQaN26NYMHD8bb25saNWqwbNkyPvvsM/bu3UubNm144403CA4Oxt3dnccee4wSJUrg5+fHtGnTmDVrFp9//jne3t7MmDGDJ554AqPRyEcffcRPP/1ETEwMtWrVIjs7G1EU6devH35+fixfvhy73U7z5s355JNPCA0NJSkpic6dO6u7HKIoUqdOnTvuMOSiKQMFRAIEQQeKC7vFiiK5OHFgN2f+OEiZsJKITz6WU1AQAPlm2nCBB08grqGhoaGhoaGhURiEh4czY8aMe5Zp1aoVrVq1ynPOz8+P1157jddee+2O99SrV48lS5bc8dqECRPUv0uWLHnXzM4jRoxgxIgRADRu3Fg97+HhQa9evejVq9dt9wQFBbF06VL1WKfT0bdv37t8shw0ZeAvuFWTynW+cLlcuHQGXFYzJ/44QPSlCwT6urNn83pKGGy4k4UBOwIgKyICICIiKv8uRSA2NpYbN26ox3q9Xs3qeavtXXGTkpJCdHS0+luLokhwcDChoaFq9KfExEQSExOpXbt2geUUpA5FUTh//jzh4eF/SyZGjfvHZrNx6dIlNdO3IAh4enpSpkyZfGcK/zuQZZmYmBhSUlLUc0ajkYiICDW7piRJXL58GX9//7/Mjnk3ClJHrr2rv78/5cuX16KuPeRcvHiRjIwM9dhoNFKqVKlCycRcmKSmpnLlyhX1WBRFQkJCKFmypNrHYmNjsdvtVKpUqcBykpOTSU5OpmLFivnKDJ2RkcHly5fx9fWlfPnyBZaroVFYaMrAPVAUBVmW1bizuV7jl69cIT45A1fmDb74dDLBvu50eKIFlhsxtG9dn+rVSoMjA0kKRBH1GARdjpOH8u/aF5gzZw7z589Xj3NDXL3wwgtMnjz5gdOaFxY///wzb775pjqZg5ywYsOHD+ftt98GYO3atcyePZszZ84UWM6aNWuYO3cup06dyvc9ly5dYsCAAXz99ddUq1atwLI1io6rV68ycOBALl26pJ7T6XRUqlSJuXPnPpACWZg4HA4+/fRTvvnmG/WcIAiEhoYya9Ys2rRpg8Vi4e233+a5556jT58+BZJjNpt5++236dy5s+oAdzdcLhdfffUVkyZNQpZlnE4n3bp1Y8aMGQ/N+KBxO++++y4///yzeiwIAu7u7rz66quMHj36ofntdu7cyZAhQ9RjQRAwGo28/PLL/Pe//wXgiy++4Ny5c6xdu7bAcn766ScWL17M6tWr8fPzu2fZPXv20L9/fzWhVZ8+fRg/fnyeyC8aGn83mjLwFwiCgKIouFwunE4nycnJ7NixncXfrMBHthDqrtCkUkWErGT83ASC/LwxKE4SL58jvG4pBNyRFRkRAUWWiySgkCRJWCwWHA4HXl5eD82gYrFY8PLyYufOnUBOXN6ff/6ZqVOnIkkSkydPxmg0FnMrcyZJaWlpHDp0SA3NtW3bNj766COeeeYZIiMjsdvtpKenP5Acu91OWlpavsuePXuWsWPHcujQoXuGBCsuZFkmMzMTSZLw9vZ+KH7L4sDlcpGens6qVasoX768ugI/e/ZsunXrxi+//EJYWFhxNxPIeSY7d+7M22+/jaIoZGRkMGvWLD766COaNGmCoihkZWXlUYzvF0VRMJvN+arj/PnzzJo1i/nz5/Pkk0+ye/duunTpQt26dRk0aFCB21AUyLKM1WrFZrPh4eGBh4fHQ7XD+XeSlZVFgwYNmDt3LpCz0v3999/z8ccfYzKZGDFixEOhEDgcDmRZZt26dZQpU4bs7Gy2bt3Ke++9R9OmTWnXrh0Wi4WsrKwHkpOdnU1mZuY9bbIBrl27xvDhw3n++ed5//33OXPmDFFRUTRs2JDu3bs/UBs0NB4ETRnIB9nZ2aSlpXH58mWuXr3K3j17SY45R4lALxrXrUmAQSIzMQY3k5ErsfF4B5Um9fIV9F6nCa1SF0XvhiLqUEQFhMLVBtLT05k3bx4XL15UJ2X9+/enbt26hSqnoBiNxjzboDVq1MDPz49x48bRp08f6tatS2ZmJuvXr+ePP/7A39+fzp07q0nq1qxZQ5kyZThz5gxHjx4lPDyc559/ntKlSyNJEvv27WPLli3Y7XZq1qxJ7969MRgMQM6q+qpVq7hx4waVKlWie/fuBAcH37WtERERanxff39/Vq1axcGDB++YKOTSpUusXr2aa9euUaFCBbp166bGFM7IyGD16tWcOXMGPz8/unbtSo0aNW6r49tvvwWgY8eOeeIFA+zevZv//Oc/NG3aNM8298PClStXWLx4MbGxsciyjLe3NwMHDvxXJxcsXbq02tcrVqxIpUqVeOaZZ5gyZYpqj3rs2DHWrVtHeno6devWJSoqCl9fX5KSkti2bRvNmjVj8eLFZGRk0LBhQ7p06YLRaCQ9PZ3ly5dz/vx5AgICePbZZ6lTpw6CIOB0Otm4cSP79+9HFEVat27NU089dVdTGz8/vzzP5NChQxkwYAAul+u2spIksWnTJvbs2YMkSTRt2lTtr4qicObMGdatW0dycjLVq1e/407AjRs3WLp0Kc2bN6dx48Z5JtAWi4XevXvTsmVLte3VqlXj0KFDD5Uy4HQ6+frrrzl8+DCyLKPX6+natStPPvlkcTet2PDy8srTjyIjI3F3d2fVqlV069aN8PBwEhMTWbt2LefPn6dkyZL07NmTcuXKATm7rb6+viQkJPD7778TERFBr169CAsLw+FwsHXrVnbv3o2iKNSvX5/u3burffrIkSN8//33pKenU79+fZ577jl8fX3v2E6dTpfn2SxTpgwzZszg999/p127dreVz607NTWVOnXq0LVrV3W1Pzk5mRUrVnDlyhWCgoLo0aPHbVFeADZt2oTZbKZHjx55zouiyKBBgxgwYAAmk4nIyEjKlClDQkJCAX4BDY3CQzPM/AskSSIrK4v4+HjOnDnDokWL2LdvDz5GiKxSBj+jQnZGEvaMNNzc3Dh0+BTfrtvM7h2/cuH4YbKzUtDpFJzy7S/aB0VRFHr06IHBYGDSpEl89tlndOrUiVGjRmE2mwtdXmEgCAJ9+vQhIyNDNbmZMGECn3zyCZUrVyYlJYXnnnuOixcvArBgwQL69+/PunXrCAoK4vPPP2fcuHFYrVbOnj3L8OHDcXd3JyIigunTp/Of//wHyFlxbNSoEb/99huVK1dm5cqVvPbaa3nsXO+GoigcPHiQ69ev8+yzz952/eLFizRv3pyDBw9SpUoVvv32WwYOHEhWVhY2m43Ro0czYcIESpUqxeXLl2nevDknT57MU8e8efN49dVX8fPzu+OKeo0aNfj5558ZOXIkPj4+9/09FyWpqamMGTOGSpUq8emnnzJz5kyioqKYMWNGHh+RfzulS5emcePGbNq0CafTybFjx2jXrh1Xr16lSpUqzJo1i/HjxyNJEtevX2fq1Km0bt2azMxMMjIyGDx4MCtWrADg1Vdf5fvvv6dWrVokJibSr18/UlJSUBSFzz77jP79+6sJcXr27MmcOXP+cpUScnag1q5dS506dW7rh4qiMHnyZF588UVEUcTLy4shQ4YwdepUXC4XcXFx9OrVi5MnT1KhQgW+/vrr25zU0tLSGDp0KN999x1VqlS5bSW9fv36jB49Wk3Gk5yczPnz56lcufKDfPWFzrvvvsvZs2f54IMPmD59Oq+88gqffPLJHUMF/lsRBIHBgwdz5coVEhMTsVgsvPHGGyxZsoTKlStz8uRJWrZsSWxsLAALFy5kyJAhbNiwgTJlyvD111/z7rvvArB582ZGjx5NSEgIgYGBjBo1iunTpwM5k/X27dsTGxtL1apV+eyzz/joo4/y1d8lSeKnn34iIyNDjQ1/KydPnuSZZ54hLi6OqlWr8vnnn/PKK68AOQtvPXr0YP78+URERHDgwAG6dOlCdHR0njrWrVvHiBEjCAoKuq3+kJAQRowYgY+PDw6Hg/nz53Pp0qU7LjhpaPydaDsD90BRFCRJIiMjg4MHD7JlyxZOnTqFy+EgOEgg1ENGSovHqShIih7v4FKElBPZf+Ac4cFWWjQ3k3z1DOG+fsh6Ey5BLlQroQsXLmC1Whk5cqS6Jdu2bVt+//131q1bV2Cb36JGr9fj4+ODxWLh8uXLrFmzhqVLl9KyZUtcLheKojBgwAB27dqFJEl4eXmxcuVK3N3dady4MWPHjsVsNnPlyhWCg4Pp2rUr5cuXp2bNmhw+fBhJkvjkk0+oWrUqq1atUidIHTp04OjRo7Ru3fqO7apXrx6iKKpmQz179rwtE6Asy/z3v/+lQoUKfPPNN3h6etKpUye6dOnCpk2bqFSpErt372bXrl1ERETgcrmwWq2qMiBJEgsXLmTu3LksXrxYTW3+Z3LNSh7UNKkouHDhAg0bNuTFF19Uz7Vp04YjR44QHR1dYMfTfyIhISFqf3rzzTd5/PHH+fLLLzEYDLRs2ZIXXniB69evoyiKGl+6U6dOKIrChQsX+P333+nbty+7du1i1KhRdO7cmW7durFs2TJcLhfR0dGsWbOGlStX8vTTTwPQrFkzPvjgAzp16kTp0qVva9PXX3/Nxo0bVXMeRVGYMmXKbY6PFy5cYOXKlcyfP5+ePXsC0KJFC0aNGkXv3r1ZvXo15cuX58svv8TLy4v69eszYcIEkpOTgZwdstzJ3datW+/oAC+Korram5KSwltvvUXZsmUZMGBA4f0ID4jNZmPt2rUcO3ZMHQ9q1arFa6+9xrx58/j000+LuYUPD0ajEb1ej8Ph4OjRo5w+fZrvv/+esmXL8tJLLxEVFcV///tfvv76a2RZpnz58ixYsEB1pH3nnXfUoAmRkZF069aN0NBQypUrh9lsxul0MnLkSJ566im++OILDAYDTZo0oXfv3owaNeqOO7/p6em0a9cOg8GAw+EgOTmZF1988bZnQ5ZlBgwYQPv27fn8888xmUw0bNiQHj168Ouvv3Ljxg2uXLnCoUOHCAwMZNiwYQwYMEBVBhwOB0uXLmXKlCnMnj2bNm3a3PE7EkWR9PR0Ro4cyd69e2nUqJG6W6KhUVw8YsqA62YeX90dgnXefZotovA/110hTy5gAeWW+xW4ZXVBUBQERcFstnDk2HEOHDyAI9uMh0EgyNsbWRDIVgSysuyky+Cpc6NMeBBebX0p4e+HXq8jPSGakHJVMPiVIidVWeEhSRIeHh632WZ6e3urqbIfRhRFweFwYDQa2bFjB5mZmXz66aeqs/H58+c5deqUurvRsGFDNSpL6dKlkWUZWZapXr06TqeTF198kapVq9KsWTMGDhxIeno6Fy5cICMjg5deegnIseu+du0ax48fv6syMH/+fNzd3ZFlmfj4eD7++GPefvttZs+erZaxWCycPn2abt26qZOb4OBgIiMj2bFjB97e3gQFBamTeb1ez6JFi3Bzc+PTTz8lLS2Nd999l2rVqj2yJgaKotzml5LrmCdJUjG16uHEZrOpL/9Lly6RkZHBwIED1WuJiYkcOnRINWHINVsQBIGqVauqNs9Dhgxh1qxZbNq0iVq1ahEVFUVQUBCHDx9WTbaWL18O/K+vJyUl3VEZeOaZZ9RQeA6HgwMHDjB16lTVZCGXa9euYTab6dq1q3quTp06SJJEZmYme/bsoUGDBupz0KhRI7777jvsdjuQ45gZHx/PjBkz/jISVmpqKiNHjiQ5OZmlS5fi7+9foO+7KFAUBVEUVfPDXLy9vbFarcXUqocTRVFQFAWdTsf27dtJSUlh7Nix6q5TXFwcqampah8pV66cat7j7++PIAgIgkCzZs1YsmQJPXr0oGrVqrRq1Yru3btz/fp1Ll26hM1mU58jq9XKjRs3OHTo0B1X+728vPj4448JDw9HlmUSEhJ47733eP/99/nss8/Ucunp6Zw4cYLhw4erZpvVq1cnPDyc7du34+XlRe3atdXFDoPBwFdffYXRaOTixYtcuHCBCRMmEBwczNNPP31PfxJvb28mTpxIcnIy48ePZ9q0aaq/hYZGcfCIKQPyzX915LpT5oTtzOXOCoGiTvj/V+pWZSDvWSXnjKIgO5zILplLly/z2++HyMzKxKSTcPdyw9/LA6vNiux0IKIjKc2CEhtP7RrhOLLBYNBhsVrx8/PhxuXzhEaGIklAIYYXrVKlCmlpaSxZsoRevXphMBg4fvw4S5YsYf369YUmp7A5e/YsLpeL0NBQzp49S3BwMJ07d1bDG0KOnWfuC+TWiacgCOpKYvny5dm2bRtbt25lyZIlvPPOO0yePJk9e/bgcrlo3bo1TzzxhHpvjx497hmRp0GDBnl2As6ePcuHH37I5MmT1XO5isitJhW5bZIkCYfDcdsKa64JRO5nee+995g8eTJLly79y9i/DyPly5dn8uTJ1KhRg8cffxxBEDh58iT79u27LTZWvd8AACAASURBVCnLvxlJkvj999+pWLEiBoMBWZZp27YtTZs2Vcu8+OKLREZGkpmZCZAnFKler1d3yt555x169erF0qVLWbVqFTNnzmTLli14enri7e1NVFRUnolEnz59iIiIuGO7QkND88SrrlatGtu3b2fdunWMHDkyT/tlWc4zCc6drEGOMqPT6dRjnU6HTqdTJ3rh4eG88sorTJ48md69e9/VwTwuLo6nn34aT09P1qxZc0cFpjjx8PCgbdu2TJ48mbFjx+Lu7k5cXBxTpkxRzRI1cjhx4gSenp74+PhgtVqpVKkSnTt3Vvtmly5d8PX1VcfIW/usKIpqX2revDmHDh1i3bp1LFmyhOHDh7N48WLmzp2Loig8/vjjefpw7969qVWr1h3bpNfriYyMzGPbf/nyZRYsWMC1a9fUc7nP2p36uyRJOJ3O2xTCW99N/v7+jBs3jmHDhjF//vy7xp6XZRmdTkd4eDjh4eEMHTqUt99+G5vNpikDRYjF6STxITWfLkw8jUaCCxDc4JFSBhR0gIJ4c3IvIuRM8hVAkIH8RVy5s6OEiIIel3AzoRgKOqMOiyWFffv3k3Q9AXcd+LgZCfbxIsjHB52soHO5UJyQmZ6JkpjKZTcJg8ETh91O+fBQzGk3MNvt+IaUxQ2JwgwnJIoiP/74I19++SWxsbGUK1eO5ORkJk2adM9MesWFLMtcvXqVsWPHUrNmTerVq4efnx+zZs2iUqVKNG3aFJfLxerVq0lISLijvf6t7Nmzh/Pnz9OnTx86duzI+vXr6datGzdu3KB06dLExMTw1FNP4eHhQVZWFnPmzMl3eM7c3YWSJUvmGfC9vb2JiIhg586dDB8+HE9PT5KTkzl79iz9+vUjLCyMpKQkbty4QXh4OE6nk379+tGgQQMURcHLy4uXX34Zs9nMO++8Q2Rk5EMTejK/BAcHM3HiRObNm0eVKlUoXbo0Fy5cYPjw4YSHh+fLdvefjtVqZe3atVy+fJn58+cTEhJCaGgomZmZPPPMM5hMJmJjY1m0aBEtWrRQlYG71TV58mR69uzJBx98wBtvvMGAAQPYtm0b/fv3x9PTk9DQUHXH68SJE/z44480adLkL9upKAoxMTFcu3btNlOFkJAQ3N3d2bx5M+3bt0cQBM6fPw/krLY2adKEU6dOYbFY8PT05NixY/Tp04evvvoKyFF0nnnmGTZv3sygQYOYN29eHsUYcpyLhw0bRu3atZk5cyYBAQH39T3/XcyYMYPPPvuMs2fPUrduXW7cuMHgwYNp2bJlcTftocDpdHLhwgXefPNNWrZsSXh4OI0bN2bnzp00adKEiIgIHA4Hc+bMoUSJEveMxS/LMt9//z2AmlRp3rx5TJw4EUmSKFmyJGazWX2OoqOjWbx48V13fP9Meno6x44dw9vbO8/iT0BAgOoL0L17d0wmExcvXiQxMZEWLVqQkpLC8uXLSU1NpUSJEjgcDvr06aOa0IWFhREVFYXT6eTzzz+ndevWtwVU2LVrl/rslitXDkVR+OOPPwgKCspXfgKNgrPl4kX6r1tHpYAA9P/QKGDJNht1S5ZkWdeuuN9nf3qkep+imgYpCLmGQopIzv7A3ScgMrpb7r011r/CnyP/iyiI5CzgS7JMUkoqsbHRyA47vu4G/D2MBHq44WkwoLiy0QkCdqcTR7ZEUkoGZnMinu5eBAYGcvHiRdwNAhEVq5AUcwFJ9C30PAM2m43MzEwmTZpE/fr16du3720v3OLk+vXr6mBpsViIi4sDckxyAgMD8ff3p0WLFowZM4aePXuSnJzMsmXLGD9+/F9qtjqdjhkzZnDp0iXKli3Ljz/+SJ06dahWrRrDhw8nKiqKV155hSZNmrB7925iY2PvmK0vl/79+6PX65FlmRs3bhAdHc3cuXPzDNKiKPKf//yH7t2789prr9G0aVO2b9+OwWCgQ4cOaoSI3r1706VLFy5fvsz27dsZPXo0O3bsAHJWm4YPH86+ffv47LPPmDlz5m2+CQ87uau/48ePp23btvTs2VP9vf6tpkJvvPGG6hhoNpu5evUqQ4cO5amnnkKn0/H+++8zZMgQDAYDtWvX5ocfflAdc++FyWTizJkzjB49mq5du3Ljxg3Onz/Pa6+9RpkyZYiKiuKll16iT58+eHh4sHDhQp566qm7JjzbuHGj+hza7Xaio6MJDQ29zcSiYsWKdO/eneHDhzNgwAC8vLxYsmQJzz33HKGhofTq1Yv+/fszZswYatasyYYNG6hdu3aeHYmQkBDee+89nnzySdq2bUv//v3zPNdr165l+/bttGrVSnXUhJxMm2+88cZ9/wZFRXZ2Nk6nk9mzZ1OhQgWGDBlCvXr1irtZxcpvv/2mju1ZWVlcuXIFf39/Ro8ejZeXF61atWL+/PkMGzaMjh07cvnyZb755hsWLlx4z7FdEASsViuTJk1SI7KtXLmS+vXrU6FCBXX1XRRFatWqxffff4/JZLrrc5SVlcXIkSPx8vJCkiSSkpI4ffo0s2bNypMTQKfTMXv2bIYNG4bRaKRGjRqqc/1jjz1Gamoq8+bNo2/fvrRv355jx45x6dIlateuza+//qrWM3DgQPbs2cP06dNZtGhRnrbUqVOH+vXr07t3b55//nmio6PZsGED48ePf6je2/9UKgcEsDAqCt9/6A7MurNn2f0nh/b88kgpA9yiDNw6+c85ErmbQiDf4hkg5Pnvz+Xlm/4FoMgKVoed8+fPcurYUYyCjK+bHl+jiJsiY7GYEeVsjDpQBIEsuwun3oHN6SLLlkn8jRTc3T2pVqE0MdFXuZpiw7tsDeRCXDW1Wq0899xzTJw4kcqVK7Ns2TK++uqru25P/t382YHKz8+Pl19+mXbt2qkmAzqdjlmzZrFw4ULWrVtHSEgICxcuVFfcoqKi8sRo9/f3p1evXnh6etKkSRPmzZvHnDlz+P3332ndujVr1qzBaDTSsmVLjh07xocffsjatWupXbs2H3/88R3jvecqD06nE8jZVm7VqhVRUVGEh4cDOc7FuaEOmzRpwv79+5k8eTLffPMNLVu2ZObMmWr0iPnz5zNz5kw2bdpEREQEx48fJyQkhIyMDLUODw8P5s6dy/Tp08nMzLzri8zHx4eePXs+VJk9o6OjmTVrFi+99BIlSpRg6tSpuLm50blz5+JuWrEQGBhI37591UhKRqOR8PBwOnbsSIUKFdSJT4cOHdiyZQvTpk1j9erVtG7dWo2GlVvHrbRp0wZJkjAYDHzzzTfMnTuX7777jqCgIL744guaN2+OIAiMGzeOWrVqqcnE3nrrLV544YXbfIl0Oh2PP/54Hvt9b29v+vXrR7t27fD09MRms9GpUydq1KiByWRiwoQJNG7cmK+//hpJknjnnXfo2rUroihSrVo1Fi1axLRp01i/fj1RUVEMGTIEp9PJc889R/Xq1QFo2rQpCxYsIDExEbPZnMcc0MPDQ/XruZWHLYJW//79ad++Pb169eLXX39lypQpfPTRR7eZjfxb6NSpUx6zmxo1ajB69Ggee+wx9Zy/vz+LFy9m9uzZapz/nTt3qruznTp1yhNsIDw8nD59+iAIAr169aJEiRIsXLgQi8WiKqU6nY5nn32WMmXKMG3aNFatWkXbtm3VCfyfqVy5Mi+//LJ6bDAYaNOmDV27dqVkyZIAtG7dmipVqgDw5JNP8t133zFt2jSWLVtGVFQUgwYNws3NjbCwMDZt2sTkyZPZuHEj1apV46effiIgIICkpCR69OiByWRCr9fz/vvv8/XXX5OYmJhnl97X15cVK1Ywd+5ctmzZoh43aNCgkH4ZjXth0usp7eOD/0OUGb4wCXwAhfKRVAZyV/QVRUARcib6yh3W3HPX/WVFAUHONSq65apyUyHI2VnINW+QFYVsu4P9e/cwe8anZCQlEOhpJMBNj7dRwA0XmZnp+Pt6IBpFJKeCZDQQULY8EWUCSU68QfSVy1yIvU6p8FJkZWVy/eJ1vFOzke4Qy7ugXL16lcaNG9OxY0cARo8ezaxZs+5o21gcdOnShS5duvxlOS8vL0aMGMGIESNuuzZ8+PA8x0FBQYwZM0Y9btKkyV3NIcLDw/niiy/+Un7Dhg1p2LDhPcs89thjeV504eHheRyLb8XDw4O33nqLt9566551hISE5PFHuBMBAQF5Pu/DQEJCAu3bt6dFixYAjB07ls8//7zIlAFFUUhLS7ujU7yHh0exO5uGhoaqUXP+ilq1at22Wgg5JgbvvfdennO3JiHy8PBg1KhRjBo16rZ7RVGkR48et8U0/zMGg4EXXnjhnlmB3d3dGTZsWJ5zHTt2VMeYP1OtWjXVLCgXvV5/Wx13a1v//v3p37//Pdtd3FitVhITExkyZAiCIBAREcG0adPIzMwsMrMmq9V61wSFISEhxW5ScmtW33sRGBjIBx98cMdrQ4cOzXNcsWJF1QdDFEWefvppNULWn6lTpw5Lliz5S/n169enfv369yzz53Grdu3aLF68+I5lcx1//8yf30MVK1Zk0qRJd6xDp9Px6quv8uqrr/5V8/9WFEUhPT39jk7xD8M4q1G0PFLKgKDkOvgKKIjI5EznJUCR5Ty+AKIg3FQCQFQkREVGEMSbdwjIyk37fVkAMceMSJJkFEFEUgSuJ6fy44YNnDr8Oz4mEX93ET+TiLdRB5IDlyRjdDehN4o4rS5CIiow7O33qFq1LLFX41j05VccObiP/cfO0qh+JNFnDpN0dTeye+G9PEqXLq2mUY+IiGDz5s0EBAQU+4tC459NWFiYGvHF19eXpUuX0rZt2yKTl52dzcKFC9m7dy9OpxO73Y63tzdOp5M2bdrccYKsoVFYuLm5UbZsWebPn0+DBg04fPiwml29qDh8+LAasvTGjRsEBgYiiiJJSUksX778oXOy1nj0cTqdLFu2jJ07d+JyubDZbHh5eeFyuWjevPlti1sa/yweqVljziq+nBNNSMg1+5HQyS5EORtByIkEpMhyThQAcqMB6JAkGUGnB0QQdYAeCQFJBEEQERQFEQnRZcVhN3Nk5wZ+37EVN4eTkn5ulPI24GXS4W4wYMmyo9MJmNyN6AwKNlmibLXa1GjQGC9vD3wCIng9OILdO7azfvViDp+NRTJ4Y9TpkHSFt2Lv7e3NsmXL+PDDD0lKSqJNmzYMGjTovr3INTTuh7JlyzJw4EBmzJiB1WqlW7duecJPFjZubm7qqviRI0f45ZdfeP311zl69Kjqh6GhUVSIoshXX33FuHHj2LRpEzVr1mTMmDFFGvmlRYsW6s5b48aN+eqrrwgMDOTxxx/H4XAUmVyNfy9Go1HdoT99+jQ//vgjb7zxBmfPnmXz5s1FIjM3FO2duFsGdY2i4ZFSBlBuRgsSyMkHoMiI2BEkG7I5FWt6MuYsc06koZth7owmE4K7N0Z3L3TunqA3oSj6HLMiBQTBAIoLQXIiOi0kXDjFj9+tYN+vOynrryOybB30khVvo4hRB7IkIbvsiKKE7HTikCVcskRwcAA6ozuSoEfQKYRFlCeqVxghIYFMeP99RKOJ6nUbEX/9eqF9HWazmb179+YxPTlx4gT169fXFAKNIiMlJYWEhIQ8DqdHjhyhbt26RS5bFEX1BSLLsvbC0Phb2LRpE/Xq1VOdho8dO0bTpk3vGi61MDEYDLhumpdKknSbL4iGRmFz6zibm2ejKIiNjWXdunVYLJbbrg0fPjyPf5FG0fJoKQMo/4vTL4AOGdmWRlrcBdJjzpNxIwEBgYDAAHx9fTGZTKRdS+daph2MHvgHh+IbVBK90RODhxd6oxuCpMMgKGSb00hOuETsyd+xx58hWG/BJ6QMJUuGIdsycdODI9tGptmMLHvhsJlBcqE3iHi4u+NXwg9RbwDBgCAqOFwuTB6e1GvcgvJVqmLJdtLipoNroX0bNydEkPOS2L9/P3a7/S9tJDU0HpTcfAvZ2dls3ryZwYMH/y1yPT09uXLlCg6Hg4SEBE0Z0PhbyO3vsiyrCaaaNWv2t8iuUKECe/fupVWrVsTGxuaJgKOhURTk5tKw2Wxcu3atyMJFx8TEkJCQQFRU1B3boPH38WgpAwqAjCDoEBUZlzWF1At/cOPsQUy2ZLydNgRBwCQmYXD5YPT2xi01mdIOK44MJ44kHS7/YHTeAWQb3LAIOnwcWSgoOCxWXJlmghSF8qEliL9wGsGaRQkDmEyeeHsaScsUkWUHiAJORcJd1KGXZNx1esqElUZQdHBTkzYYDEiSQomgIGbN+QKzzcG1pBQUpfCUAW9v7zzOgM899xzTp0/H5XI9FA7EGv9MAgIC8gzekZGRLFq06G/JqBwREUFERAQtWrTAz8+PqVOnFrlMDY3nn39e/dvpdDJ58mSysrL+lihf7777LgMHDuTDDz/klVde0ZQBjSKnVKlSVKpUiccffxxvb++/DHTxIISFheVJxHgr/9Yw1cVBsSgDeQOD5iVvHoCb5RUlx+xFlJElCZzZONNiuXHpCGnxl5DMGeBw4bBLKKJIhi0TD7ODkiHglGUUQULBCSjITiuC0w1RyUkt5nTasbucuFwy3j6+iFYHiizg6eELig69wYhOn42btwE3lwF9moheEpGNRhRFwml3IiielCsXgcFws/2iAALo9TkZzLz8SuBVQkdSalqhmu9kZWWxdu1a9Tu6du0anp6e2mqpRpGSnJzMjh07sFgsyLLM8ePHqVSpUpHKdDqdHDhwgLi4OGrXrk337t3x9vbWIlxo/C0sWbJEnZikp6f/Ldli4+LiOHDgAABz5swhODiY4ODgIpWp8e/G6XTy22+/ERMTQ5UqVVi7di3e3t4PVWhrjaKhmJQBBRn+FOrzf6gBRG9xLlEUBUV2kpp0g6snDuNlj0XOuEq21YZit5GVacXhlJFFHdZsOz7eHrh5uIOUjYAdp8OO0c0TD5MON72C02FFVhRkFBQF0AkYTSYUwUhQUAjBIaFkpDvR6fQY3WQcsp1shxVXtgMlW8ElSYguB3pZwN83iIDgEBQU9EJOJKNcZFF3yxbbvdSg+0cQhDwxw+vVq0ezZs00m1KNIkUUxTwJcjp37kzjxo2LTJ6iKCxZsoTffvuNRo0asWnTJrZv316kq1UaGrfi6empKgN+fn68+OKLecbewiYtLY3BgwerOVk2bNjA+++//1Bmltf4Z6AoCitXrmT37t00btyYP/74g+3btzNlypQik1mxYkV8fX2LrH6N/FOsZkLKHSbGwq3/CoLqvOJyubh49jyLvvqS9OhzvPBkbUq42XG6snFKTqyWDOyWbBRRh4SCVbGTlarHqAOjm4ii6NDrTBgM7gjocLqykZWc2ESKAgg6XJKE0WgiICCA0qXDkVzXsNtt+Pv7IApOnM50srMlLFY7ejfQCwayFYHS5SpgCghEVODPC/+37gTkRDYqvJ0BLy8vevTogcPh4Pr165w9e5Z9+/bRvn17zYFYo8goUaIEHTt2VO32jx8/zo4dO27LYFtYmM1mkpKSmDp1Kt7e3siyTLNmzTCbzY9c5maNR5OuXbvicrlISkri8uXL7N27l/bt2xeZXfOmTZvo1auXmoiuevXqHD9+nIoVKxaJPA2N3HwakyZNIiAgAFmWadu2LVlZWUXmyCtJEocOHeKXX35Rz0VGRuJwOGjYsGGRKtwaeSkmZUC4mQxM/p8J0E2UO0xiFUUhIyODld+sYP/uvUT4GcCZjaKz43RmY7Pbsdtt2CxmRIMJ/6BAREHCYbchGHQYjO6IggF3d2/0ehOyBKKgA0HAYc9JsCELCk6XDTc3HZ6e7oSUDMbplFBkCUUGT28fPNyyMBktmIVsXA4bsmDCLusoVbUmOpMHAiLCzT0P9ZPeogAUtvmOw+Fg69at/PHHHwAEBwfTpk0bTRHQKFLMZjM7duzgwIEDuLm5UapUqTwRrQobg8GALMscO3aMunXrcuXKFTw8PLR8Ghp/G7/++it79uzB6XTi6+tLixYtitQvKywsjC1btpCUlITBYODkyZNqllwNjaIgdzw9ceIEDRs2JDo6GpPJVKT93MPDgwoVKpCdna2eCw4Ofij8Hq9cuUJycjJ+fn7ExMRQp04dVq9eTdeuXYtth85isfDDDz/QtGlTdu/eTb169dRM7w9KsRmXC6A62+bhlkM1I7Asc/ToUbbv/CUnO57kgmw7ouREdjrJtjtJTUsjy5yZk6VUAA8PT1LTMrHasnG5FBRFj9Hojk5vxGAwYTS6IaAHBGRFQJYULBYrGRnpmEwGgoMDCS8djK+fOzqdgKeXD2XLliOkZDA+Pp5ILgcOuxPJ4E75OvVAb8oxD8oNf/o3kJaWxuuvv05qaip9+vRh6NChaqp3DY2iIjY2lmnTpiEIAv3792fgwIGUL1++yOS5ubnRqVMnJk6cSK1atXjttdeYOnUqbm5uRSZTQ+NWxo4dy/Hjx+ncuTMjR46kYcOGRaqMtmrVCm9vb1q3bk2TJk3IzMykefPmRSZPQ8NkMtGxY0emTZtGrVq1GD58OOPHjy/ScTYjI4P9+/fz66+/qv/FxMRQo0aNYo0mlJ2dzZgxY/Dw8GDcuHHUr1+fHTt2MGHCBHx8fIqtXXFxcYwfP56MjAzeeecdrhdiqPpiWVoTbv2/nLM7IAoC3LKKfuuOgdlsZv369VyJicbHzYjdLpCRnoKXoGDLsJOVYcOcZcXptKOXBHztTtw8vIi7dgMIwdcvAL3OiNMhYzPbEHUGHC4Jl6QginpEBFyygtNpITU1nRKKgq+vL2aLiMOZs9rvcjooWTKErMxMHNlWdHorlvRsvEuE4F+mPLIoopNB1a9uWZy/1e+hMAkJCeHUqVOsX7+eCRMmEBoayrPPPkuTJk3ytTvgkhV04t08NwqGzWZj69atbN68mfj4eIKCgmjSpAldunQhMDDwgeq+du0aq1evZsOGDaSkpFClShV69+7N008/XaAXs8vlYtu2bSxbtozjx48TEBBAhw4d6N27NyVLlixQGy9dusSSJUvYtm0bdrudhg0b0rdvXxo1alSgNmZmZrJx40aWL19OfHw8ISEhdO/enU6dOj3w9wk5urdLUjDo8t8LqlWrxvr169m4cSMffPABpUuXJioqKt95BpySjF4n3le/q1ixIh9//DEpKSn4+vre12qIooAkK+jv4zP+dZ0KV69eZeXKlRw/fhyHw0GpUqXo3LkzzZo1eyDn0lwnvvnz53Pq1Cnc3d1p1aoV/fr1o2LFigXaYYyLi2PNmjX88MMPpKWlUa1aNfr06cMTTzxRoBU4p9OpPjsnTpwgKCiIDh068MILLzzQs7No0SK2b9+Ow+Ggfv369OvXr8DPzt0oyLi3f/9+tm3bxpw5c/Dw8KB9+/a0bds2X9+drACKgijmX6JOp2PQoEG0bt0anU5HmTJl8vjp3AsFkG9+xsLEZrPx448/snXrVmJjYwkPD6dVq1ZERUU9sBlJfHw8S5cuZfPmzaSnpxMZGUmfPn1o27Ztgfq70+nkxx9/ZPny5Zw7d47g4GA6d+5Mt27dCuSErSgKp0+fZsGCBezbtw9JkmjQoAEDBgygXr16BfLTS01NZf369axZs4bExETCwsLo2bMnHTt2LJSIUQ6XjFF/f99d+fLlmTx5MklJSfj4+NzXOCsrCrIC+vvod56entSsWRO73U52djZbtmzJWdC9T2Qlx/ezsPr8ypUrSUhIYOfOncTHx+Pm5savv/5Kly5dkCSJ69ev4+fnl0dRkmWZzMxMrFYrvr6+qomTJEnYbDbc3NxIS0vDz88Pg8GA3W4nIyMDnU6Hn59fnjFOkiRSU1ORZZnAwEC1fzkcDjWxbNeuXQs1t8/fqgzINyf+8D/nYJfDidVqxcPDA4PBgKgXkOT/ra4risLu3bvZtm0b5uxsEGQybRATG4fRYSQtM5uMNBsul4LVIePKtuKemoEiGLgan4wkiYSWLIWHuxGbzU5WlhWDyYQg6BB0ekRBRCeKGI0iJpMbySmpZGZmYHIzgOBEkm1Iko5shxtGkw4vLxMBgT7odHaupF+jQsUqGN09kHNfLQq3hUPKnZjfa4LukGS2n04j3N9ElZIe+X6ITSYTjRs3JiIiAofDcV/a9C9n07A6ZOqEe1K6hNt9vazuhMvlYvbs2SQmJjJw4EDKli1Leno6W7Zs4f3332f69OkFniTFx8fz1ltvYTabqVOnDu7u7qSlpTF79mySk5MZMGDAfdc5b948Vq9eTbVq1Xj22WfJzs7mwIED/PLLLyxYsOC+XxoJCQm8/vrreHp60qJFC0RRJCUlhbFjx/LGG28UKEvv7Nmz2bt3LxUqVKB27dpYLBY2bNjA+fPneeeddx54lcIpyXy1K4HqYZ7UDveihGf+Joa+vr40btyYihUr4nQ670vR3XUunTSri9rhXlQKcf9LxVWWZdatW8fx48cJDQ0lKSmJjRs38t577+VLnjnbxYqDidQolfMZvd0efNiLi4tj2rRptGrVih49euDu7s7FixdZu3YtmZmZdOrUqcB1b9++nWnTphEREcGTTz6JJElER0fzf//3f8yaNYvw8PD7qi82Npa33nqL7Oxs6tati5ubG6mpqcycOZO0tLQ84Ynzy5dffsmqVauoXr06zz77LHa7nT179rBz504WLFhAUFDQfdWXmJjI66+/jpeXFy1btkQURZKSknjzzTd5/fXX6dmz53238U7ICuw8m4bdKVM7d9zLx8KJKIrUqlULf39/srOzMRqN+e7z19Kz2Xk2jWphnv/P3nnHV1Ftb/87M6flnPQCaYQ0QktoAQEFRGpEKSJiwwZEr1iujQsqcLk0QUURpRcLTaSIoCi9Ki2ETiCEEiC9l1Nyysz7R8zRmEKAwM/7fu7zD5w5c/beM9l77b3WetZaNAvQY9Dc+OCYk5PDv//9b6KiolCpVGzYsIGXXnqJiIiIG/62xGxn3dFsooNcS7RDSAAAIABJREFUaRFowKC9/YQSDoeDKVOmIIoiL7/8MsHBwWRmZvLjjz8yatQoFi5ceMuW3NTUVOLj4/Hw8KBDhw5otVry8vKYNm0a165duyXZPmvWLLZu3UpUVBRNmjTBbDazbds2Dh06xMyZM2/akHLlyhXGjBmDl5cX3bp1QxAEcnJyeP/993n33XdvmiZpMpn49NNPOXHiBFFRUbRt2xaj0ciaNWu4evUqY8aMue1EILvOFVBS5iiXsw1uLGcVReHHH38kISGBgIAAcnNz+fHHH5kwYUKd+is02Vl7NJvoQAMxdZSzfn5+PPzww87PUVFRrF27lgEDBtSpzwrkldpYn5hDTJCB6CBX3F1uT8br9XqGDRtGeHg4zzzzDLm5uSQmJjqNMnl5eQQEBPDpp5/i7+9PWVkZc+fOZffu3RQXF9OoUSPGjx9PkyZNOHjwIOvXr8fNzY39+/czceJEXFxcmDt3LllZWdhsNgYPHsxLL70EwLlz55gzZw4XLlzAbrfTqVMnxo4di6urK9nZ2QwcOJAzZ84QHx9fr9n07poy8OcCWcgKNpsNq9WKrChkZ2Xj7u6Op6cnskZGEASnllRUVMTKlSvJzMykzG7FZiujyCCSkpqBZFZjV1SYS8oQdWpkUcJssZJTUIyMmoJiE4qcTdPCEnRaHVaHg6KiIlQaDa5ubhhcXZGVcqqQpBLR6XRoNBpMZiOy7IXNZqektBQValy0LuTmZaIodtzcdYiCJ9e0uVjNZYgOGUGtIAsgKSJVk6PeGA4HbDubT26pDRe1SJcmnvRq7kWAZ+2H548//piVK1cSEBDA1atXWbFiRZ1jBlKyTexPKWLdUYEgTy29W3rTpYkHaunW2GNJSUlcuXKFadOmOa05er2eF154gX//+98sW7aMkSNH3rCdDRs24Ofnx7333ut8lo0bN2KxWGjdurXzvgYNGuDh4cF7773HwIEDa0x/du3aNX788UeeeOIJ5+K5cOECX331FXFxcU6hq1ariY6O5tixY8yfP79WIbhs2TInX69ijBMmTMDFxYVmzZo57wsMDMTPz4+1a9fSrVu3Gg9J6enp7N+/n0ceecRpbczMzOTbb7+lf//+zmsajQYPDw8OHDhAUlLSbWfxkWX4NaWIAxeLEEWB1sGuxEX70CxAX+MhyWq18t5777F37168vLwwm81s3Lixzn1eLbCwI6mAjSdy8dKriIv2oWsTT1x11W9+paWlpKWlMWbMGNzd3ZFlmT59+vD666/XKROFXVbYk1zIvgtFSCLcE+ZOXLQP4X637obeuXMnMTExPPjgg85rbdu2xcPDg2nTptVJGcjNzWXXrl307t3baQmUZZmvvvqKpk2bVjqwREZGkpSUxPLlyxk7dmyNba5du5bGjRvTvn17ZwKGzZs3Y7PZiI6Odt7XsGFD3NzcGDNmDAMHDqwxUC8tLY3vv/+ep556yrm+Ll++zIoVK+jRo0eltRMTE0NiYiKzZ89m8uTJNY7x22+/pVmzZrRq1copJyZOnIhWq63Eiw8ODsbf35/vvvuOBx54oJ54ugopWSZ+vVjE2qMCjby09GnpTeeI2uXezz//zNixYwkJCSE5OZlPP/20ztWHSyx2tp3NZ+vZfAwaic4R7sTF+NDArebfb968mV69ejFkyBAAfv31V06cOFEnZaDMrrA9qYCd5wpx0Yh0CnfnwWifG+4lteHgwYNcuHCBRYsWOf9moaGhjBo1irfffpsffvihTgrb119/TYsWLZzzE2DOnDn4+PhU+tv7+/vj7e3Nxx9/zEMPPVSjYSYtLY3t27czePBgp3fi8uXLfPbZZzz//PPOc4RaraZ169YcO3aMDRs21LoPrVu3jtatW1cK1p40aRIeHh6V3n+jRo3Q6/WsWbOGTp061agMHT9+nPT0dB588EHnM1++fJm9e/fStWtX5xg1Gg2urq788MMPDB8+/JY9bBVIzbOw90IhG4/n4q1X0TfGh65NPHDVVn/sMxqNXL16lbfeessZQNy/f38KCwvr5Kkos8vsOV/IvuQiJAnuCXUnLtqbMF99lcQqFbh06RIrV66kpKQEu93O/v37efPNN2/6WS02mb3Jhey/UIRahPZh7vRt6U24X81914aKdVeBAwcOkJiYSIsWLZg5cyY7d+7kxRdf5Mknn6Rv3748+OCDGAwGZs2ahU6n47HHHuPTTz/liy++YMuWLcyZM4cxY8bwj3/8g7CwMPr06cPUqVOJi4tj5cqVzJw5k5deeonz588zdOhQnnjiCSZPnszRo0cZPHgw7du3Z9CgQfTo0QNBEAgPD6/3GNS7ogxUKAKyLGOxWLCYzdisNkpKShBFEZPRSNr160RGRuLt44PZYkaj0aDT6fjpp5/YvXs3DocDBQVJpcJUZqXEJHItowBfX3+8vX2xS3YUmwoHEhaLhazsbCzmMgrtdq5fv46LVo3VbqPUaESj02ApM2OXbRh0noiSgrmsjBJjKQA2qxWT2YQsC1itMjLlioux1IggCri46JEdNlzd3chMS8fhcCAqMkodQzAKTHbMVgcO+feYCKV8MttlBYesUFrm4JfTeWw5nUeIj462IW409deTa3QgiH8cmFJTU9m2bRu//fYbOp2O5ORkVq9eTcuWLStZFYrMdk5eL612HIoCdkUhNd/C4n3pLD+YSZsQV9o2csPDIKDIdV9JV65cITo6usokFQSBYcOGMXr0aBo1anTDdr766is2btxI06ZNeeSRR+jatStnzpwhICCgyr1arZbIyEjmzZtH+/btaxzXqFGjGDduHL179+ahhx4iIyODoKCgaq0vMTEx7Nixgw4dOtS44ObMmUNiYiLt2rVj4MCBdOjQga1bt/LMM89UuVelUlFaWsr69esJDQ2ttr2LFy/yyiuv0LBhQwYOHEifPn04c+YMoaGhVagIoiji5+fH8ePH66gMCBhE92rngNVerqDLCsgOhaOpJRxNLaGhu4Z2jd1oEWjAZFYQpT9ExenTpwkMDOTQoUMIgsDPP//MzJkzKx0Ade6+mCXXavvMK7WVU3cUhdxSG8sPZrL2aDYtAgy0bexKqI8LgvoP92t5AT8H58+fJzQ0lNzcXBRFqexlEiQ8GjWvtr8Si/33Z1SQHeXKz68pRQR7aYlt7EazAANFJnsd3uMfSEpKqrZqZlhYGIqisGLFihtaHzMyMpg8eTJPP/00ffr0YcCAAbRu3ZpLly5VW7fB39+fDRs21OoaXrRoEVu3bqVly5YMGjSILl26cPz48WoP0nq9nuDgYObPn19JUfgzUlNTee211xg/fjy9evWif//+5OTk4OPjU2XtCIJAmzZt2LFjB507d67Rsrl48WJ2795N27ZtGTBgAJ07d2b79u2VCntVQKVSOSlZdVUG8ow2Tl0vRV1N/7Ki/CH3HAqXcy0s2JPO8gNZtAlxpU0jVzQ2G7Lwx2+tViuTJk1ix44d+Pr6UlhYyMcff0yXLl2cnjkFEfeQGM5mWjCUVO73Wr7FOd+LLXa2nMlny5l8Ihu4ENvYnSYNXSi1giD8IWsCAgI4dOgQ6enpSJJEcnJyFY+Qxs2XYpVvlTlfZP5jvhvLHOxIKmBHUgHhfi7EhrgR5a/HJNtvypt3/Phxhg4dWkUeiqLI66+/zsSJE+tkpVy8eDEHDhwgJiaGQYMG0aFDBy5evEjLli2r3KvRaGjYsCFLly6tcc5fvXqVF198kTFjxjgPZWfPnqVly5bVUssaN27M3r17CQoKqlG2f/LJJxw+fJhOnToxcOBAOnbsyC+//MLw4cOr3Ovq6kpCQgI//fRTjVSpXbt28fHHH+Pv78+gQYPo3bu3c03+dYxqtRp/f3927txZZ4+doijV7+9Gu3Pe5ZTaWH4gk3UJ2bQINNA2xI1QHx2C6g85W7HWzp8/T5MmTcjLy0OW5UpyVhFEDAFNqu0v32gDfpez9spytl0Nctbd3Z3Y2FgyMzORZZlHH320SgEyFw8/jNoG1fZZgZwSq7Pvst9l/G8Xiwj2/KPvYnPdZfxfDarr1q1j6NChzJkzB51OR3BwMCqVisjISKZOnUpRURGrV6/Gz88Ph8NBr169SEpKoqioiIMHDzJlyhTeeecdoPzsYLVakSSJnJwcBgwYQMeOHXE4HEyaNInu3bvz5JNPUlBQQHh4eDllvbS00rjuRC2pO64MVNCBbDYbhYWF5OTkUFCQT1FhAVevXEElSdhsNtKuXWfbTz8SHhmBTwMfUBSupKayefNmrKZiNCLoJQOiAEHBjXH3UZF77QxlmUU4GugxaBT89Hrc1S44JA15RUZsNgFR1HDq/BXSsnKQJAm93gVfHx9KS8vIzsrD17cBbh6uOESFUqORSxeuoJIVXEUwyVBUaAbZQXFRKU3CI1Cp1Ljo9WgKL2MV7Nh1BkTBBUkWy8MFhGp4Qn/BTydzOXW9FIesoFGJ5YtHpspCUSjX7lPzLAR4aAimDEH1hzVJURQ0Go1zYtRkqcoqtvLjidwq19MKyqpcs9hkDl4s5kyakfZhBhyOuk86h8NRI4dWr9dTVFRERkbGDdsxmUwoisKlS5fYtWsX3t7e2O32GgOZJEkiMzOzxrZzc8ufPT8/n23btpGQkICrq2uNVjZJkjCbzc6NuDqUlZVhs9lITEzk0qVLaDSacq9TDdxmh8NBVlZWjTSpijFmZWWxevVqVq9eja+vL61atapxjFartdrvqkAR8BYbVDsH5BoOBFnFVn45nUdShpGWHgrCn5SBioN4hWDSarXY7X8R8v6hZFl8qu0zo6j6eZd4tYTkLBP3RnogaP/YWF1cXOjZsyfLly+npKQEV1dXxo0bV2k+KKKEf+te1fZnk6t/xusFZaQXlnEu04S3t6Xae2qC1Wqt9m8tCAJarZbU1FRsNlutbeTk5GCz2ZwF1by8vAgLC0OW5Wq9e6IoYjKZal1DFXzb5ORkvv76a9asWUOjRo1q5P6qVCrS09Px8fGp9vuKeVlYWMjWrVvZuXMnnp6eNSYqkCSJsrIy0tPTa1wLZrMZh8PB8ePHuXjxIrNnz8ZsNtdKi/jr/KoNV/MsbD6VhyRUL7uuVyP3jFYHv6YUcTqtlDYNFBxCZTn2Z2+1SqVyel0qICPSsN1DbDtXgkpVmfNssjqqXWcp2WYu5Zhp3ciNLKMMf9rgu3XrxokTJ5g0aRKSJNG8efMqir+LXyiZmtAqc97mqH6+X8oxk5prpmWQgSZBIjcTwma1WmuUv25ubhQWFtZJtlssFhwOB0lJSbi7u+Pu7l4lo+CfIYoi2dnZNbadk5MDlMvNzZs3s3//fho0aFCjIi6KIiUlJbXKdovFgt1u5+DBg5w7dw69Xk9ZWVm19wuCgN1uJysry3lg+ysKCwuBcu/v8uXLWb58OT4+Ptxzzz3V3i9J5QbNusIhU/3+Xli1DbNN5mhqCeczTdwX6YGg/cMjqNPpeOCBB1i2bBlFRUUYDAbefvvtyh4PUYVP867V9ldhWPornHI2w4i/ufLa8/T0JC0tjd27d2M2m7l8+TLt2rWrNNc8AiPJVIdU22cFLLaqfSsKXCsoI63QyrlME2pD1XVfF5SVlfHzzz8zdepUdDodiqKwd+9e2rdvj0qlYtOmTcydO9fp9bfZbFy5coV7772XtLQ0CgsLKxk6unfvzsqVKxk5ciShoaH06NGDt956i+PHj7N582YiIiI4deqU8361Wn3Hi3rCHVYG/lw0rPwgXr6oTp48wfVrqZhKjZSZzZjNZgrz8ikuLOLXX/fi4uqCJEmkp6eXLyTFgQA0CgwkPzePqKbNCfNWk3j5DIXGUgShgAYeOvQaFWq1Ci9PT1zcvElOuYpdkSgsMVOQn4/sUHB11VLcoAQfbx/UGhVlVgcGowvuXm6Yy2xcvHgZvSgS3NAPh1ZbvhkqMtgduBnc8PDwRKtzQZCt6F0NRHTshFqjB6Ty2ecsLFazQjCsU1X3n8Um85+Nl7iaXz5hhd+LlzX21vFwax/ah7pzLLGIddY/NprQ0FBatmxJt27dCA0N5eTJk3z99ddVhFZUQz3vPVTVIj1/93X2XSiq1F8jby19W3jTMdwDi8PK8pS6lwNv2LAhhw4dqla4//zzzwwYMIDnn3/+hu1cvnyZZs2a8fLLLzspNx999BFnzpyp4q6UZZmrV6+yZMmSGg/3CQkJzJ8/H4vFQl5eHiqVildffZW1a9cSHR1dZaypqal07NiRESNG1DjG9evXk5aWRl5eHjk5OcTHx3P27FmuX79exfuhKApubm48//zzhISEVNve6dOnmT9/Prm5uU6lYv369YwZM6aKt0VRFPLy8irRkWqFIHPNnsKGh3pW+cpikxnxVZLzsyiARiXSppErvVt4E9VQz7lzSTisf2ws0dHRLFy4kAceeAAfHx+uXbvGTz/9VKnd7OQE/F1ceO+dqrUHvvw1ne1nC8qH9vu8C/TQ0KO5N50j3HHTqVhRmlPpN61btyYmJqbStQrriiRJCA4r53/8nB8/fb1KfwUmG6+uSK70jC5qifZhbvRq7k2or47dV66w8WJtL7EyQkJCuHLlSpV0j/n5+eTl5TF27NgbWm+uXLnC+fPn6datG0OGDEGv1+NwOPD29qa0tLRKPEh+fj7dunWrdQ0dPXqUzMxMrl27xvXr1xk4cCD33Xcfp0+frkKjczgcXL16ldWrVxMYGFhte8ePH+eLL76gpKSE4uJitFotjz32GOfPn692nV++fJnY2NhaaRg7duzg/Pnz5OfnU1BQQJ8+fZxUsL9avyv2j+q8gjWhbYgbYx5sjKYGz8D83Wn8mlJZ7oX56ujTwpt7wj3Izc5kmfzHfNdoNLz55pt069aN6Ohojh8/7qSNVEDCzoUN01kz8Ykq1LVzGUY+2JyKXVbKK9QLAjq1wAPNvOjZ3JuG7hpmnxc5dd1eqc9//vOfVcZvtVpRq9UIgkDRpQSiTK14+6H7K92TU2LjjW//PN8FXDQiXSI96NXCm0BPLSn5+TcVIxYVFcWuXbucfPkKKIrC2rVrGTRoUJ1k+4EDB+jVqxcvvfQSoaGhyLJMUlIS2dnZVTw/FXLupZdeqjGt6rFjx5g3bx6lpaXk5ubSoEEDRowYwccff0y7du2qzM/c3Fy6dOlSq2zfvHkzqamp5OXlkZeXx4svvsjBgwfJzMyssk7MZjPBwcE899xzNdY8cXV1ZfPmzWRkZFBUVIQoinz55ZfMmTOHqKioSmOUZZns7Oybon+qJKHa/X3hnjT2JJcrIhXzPMhTQ4/mXnSO8MRVK7Fqcl6l30RHR/PBBx9Uuma1WhFFsVwJdli5unMp33/0SpX+MorKeOe7FOdnUQCdWqJDqBu9WngR5uvCr7+mV/rN8ePHSUlJ4ZNPPmH58uWIosjChQt5/fU/5Hhm0gGCg6/x3kN9a3wH1/ItjF33hwAXBXDRSLQPdaN3c29CfV1Yf84Cl2tsokb8/PPPAE7lLS8vj8OHD/Paa6+RmpqKLMuVvBn5+fkcPXqUsWPHsm7dOtq0aeNUFBwOB82aNWPfvn0kJycze/Zs5s6dS48ePfj+++/p3bs3y5YtQ6vVoihKOetEFO+IJ+CvuCs0oQorisPhwNXVlcDAAK6mXubq1VSKi4px2GwU5OVjMhopNZVil+2Iv3sMynM+KPj5+dGwoV/5i+/ek0h/d47u3YrdXkh+QRGCKCO6aJEcMnpJwMfHlzJZpMxmw0dSUNkUFEHBYbaRn1OIwy5hMLhitKlIzy+h7PxldC6ulJqh0GImJS2X0Mb+GDRqUtNzMFlsWBxXCAsORKfSoPcKwUPU0bzdPcjK70YdBUC4lZABANSSiI9BTSPv8iDiNiFuNPLS1mg1sdlsjBgxgk6dOlFUVMQ///lPvLy8SElJcXKCa4NKEgn01BLkqaGpv4GYYAPBXn9o5Ja66wFA+YFt/fr1LF26lMGDB+Pl5YXNZmP37t0cPHiQefPm1amd//znP1Wu9evXj507dyJJEoGBgahUKsxmMydPnuTJJ5+slUvbqlUr52am0WiYNGkSI0eOJDU1lYMHD9K6dWvnQSwtLY2kpCS++eabWsc4YMAAfvrpJ2RZJiIiglGjRqEoCm+99ZbT1Qvl2YCOHTvG4MGDaw381Ov1GAwGMjIyUKlUjBkzhvvvv5/27dtz5swZmjdvjkqlwm63OykTf46fuB1oVSJBXlpCvHW0DDTQIlCPp77mQGJFUXjnnXdITEykrKyMFi1aUFhYSGFhIY0aNbph5hcBgQZuGoK8tEQ1dCEm2JUQb12NmSDKysr46quvOHLkSJXv7r///mqpWX+FXiMR5KmhsY+O6CBXmgcacL2NwMq+ffvy+eef07BhQ2JiYpAkiezsbFauXMnAgQPrJLxDQ0NZvHhxpWuiKDJs2DC+/fZbmjdvjpubG4qikJWVRXZ2NqNHj661zUceeYR58+bhcDi47777+Prrr0lNTWXXrl2o1WoCAgKcnq9Tp04xcuTIGhUBKM8cpdPpnJbZxx9/nM8++4xx48bx22+/0aZNG2d13rS0NJKTk2+4dmJjY1mxYgWKouDt7c2bb75JUFAQr776KiqVynkoLC4u5sSJE/Tr14/GjRvf8H3WFWqpPEYqyEtLM389McGuBN6AT9+uXTs+/vhj0tLSGDFiBI0bNyYlJQVPT88b0sEEQcDdRYW/u4Ywv9/nX4Ch1gxeCQkJLFy4sNrvpk6dWitlShDAXScR6KUl1EdHzO/zXXuTmWX+jO7du7NmzRpWrlxJ//79cXd3x2QysWPHDnbs2MGyZcvq1M6CBQsqfRZFkVGjRhEfH0+bNm3w9/dHkiSMRiPHjh2jX79+REVF1dheTEwM4eHh7Nu3D61Wy7hx4xg6dCi//fYbCQkJxMTEoNPpsNvtpKWlUVBQwCOPPFLrGDt16sT69euB8gNgfHw8AwYMYNy4cajVavz8/Jy1j86ePUt8fHytxbH8/f1xOBzY7XZUKhWTJk2iR48ebNq0ieTkZMLDw1Gr1dhsNlJSUmjTpk2tz1xXCAI0cNMQ7KWlSR3krNVqZfny5fz2229VvuvSpUudlD2DRiLQS0Nj74p5rse1lkDi4uJiYmNjEUURQRDo3Lkz69atq/tD/gl6Tfk+1tjbheig8mD9200W4XA4+PLLL+ncubNTTlbUH3jooYfYtWsXxcXFpKWl4e/vz4ULF/jnP//Jo48+SlBQEN999x1vv/02Op0Om83GBx98QFpaGnPmzCEsLIyHH36YI0eOEBYWRl5eHsXFxZSUlCBJEtu3b+fzzz/no48+qrdaArXhrgUQVywGo9GIJEm4ubuhd3WloKCQgsJCCouLMBtNCJKIQ1GQHTKyDJJKxM/Xl9Zt2mAqNtGrd1969O6LTrIS0qw1F47sRyizkFVoxKHTYNBLuJQWY/BtgKSRyCkwo9GpcFNpsVltCPby4mImczYqVT4aVzfcPAyUlhZhsWRTUlKGIEFqeiYGFxVuejcUJZ9iY/lvbEYLni46RE8vXAMjaRASiV0UUQu/M4TKbT83/X5UksAj7fzw1Kto4KapUwaIoqKiSgfsEydOOP//1FNP1cihr8CD0T70i/HBx1V9WxtFBfR6PWPGjOGbb77hzTffxOFwYLVaadOmDZMnT66RilAXtGzZkunTpzN37lw2bdqE3W5Hr9fz1FNPER8fX+Pv0tPTmTFjBs2aNUOSJNq0acPw4cORJIlJkybx9ddfs3LlSsxmMzabjY4dO7Jo0aJaC/zs2bOHb775Bh8fH/Lz85k5cyZt2rQByhWZzz//nN9++w1JkvDw8GDEiBE8+uijNR4QrVar07pV8az/+Mc/kCSJcePGsWDBAtavX49Go8Fut9OzZ09eeeWVW0qR91eoJYHRfUPwc9fgpVfVKTVbdnY2q1atcrq/jx8/7vzunXfeuSG3u1cLb3o298LHVY2+DplV1Go1AwcOpEePHpWuV2RxuBEMWol3+obg56bGU6+qU/aYGyEqKopnnnmGpUuXkpGR4bScDRw4kMGDB99yu4IgMHjwYERRZO7cuRQXF2O322natCljx46t1Ru0f/9+li5dyowZM1iyZAnTpk3Dw8OD6OhoJk+ezJw5c9i4cSMOhwMXFxeGDRtWq4XUaDTyySefYLVaCQkJwdfX15kRbMKECXz55ZesWrUKq9WK3W6nQ4cOLFiwoFaX9rFjx/jhhx+cBqL4+Hh69+6NJElMmTKFWbNmOdeOl5cXI0aMYNCgQbedWaUCgiDQL8YXoRU3JfcWLFjgpCr92YVfkVqzNgR7aXmzdyN8XNW461R1Cmhs3rw5Y8aMcX6uiBPKycm5ITff3UXF231D8HXV4OFSt/5uBIPBwEcffcSSJUt49dVXgfI9PTY2lkWLFt109qg/o3Xr1ixYsIBZs2axadMmrFYrXl5ePPPMMzz33HM1GsMuX77Mf/7zH1q2bElJSQlDhgxhyJAhSJLEp59+yvz581m7di12ux273c7999/PRx99VGtNlN27d7N27Vq8vb0pKChg0qRJhIaG0qhRI95++21mz57N3r17EUURLy8vXnnlFR5++OEax2ixWPjuu++c9L3evXvz4osv4u7uzrhx45g/fz6bNm1CpVJhs9no378///jHP+ql4FZctA9x0T74uqpxqaOcfeihh+jatWul6wEBAXWiLXnp1bzTNwTfm5CzUVFRjB8/Hm9vbw4cOMC+ffsYN27cDX/3V/i4qhkd1xhf1/qT8VAey3f06NFKiVkqjCAVyUJ8fHwYMGAADRo0wGg0MnDgQIYPH86RI0fIz893vk9JkjAYDKxbt47Lly87mTMfffQRYWFhvPjiiwwbNoxHHnkEg8GAoii88sord6121F1TBipcHeVWKQs2mw1ZKc/LWlxSgtVmQxEFyqxWFAEEQUZWFBr6NeSRwY+gKDKuOlfiX/wHHj5+CIqVbv0Gc+ke8ed/AAAgAElEQVTsGRzWXApMNmwFRrxtElptIb4BZXh4eHPxeiqKXUVQ6xgy069jN5cgOuyoHHYkwYZismIsLUZUHJiNFkwWGUUF6ZnZaNQiHm5eqLWuOGQTDpsDi8WG2Wwl8coVhnV/GrXBgzJZLqcrALfqFlCJAm1Dbi5Xs6+vLzNmzMBqtTrd6Wq1us7pO4O8bj27RG1jeuutt3jttdcYMGAA6enp/PTTT7ddFbkiOHHhwoUYjUZiY2N59dVXee6556rcqygKZWVl7N+/nxkzZhAfH8/QoUPJzMzEzc3NKWjd3Nx49dVXefnll7lw4QKjR49m/vz5NQri0tJSFi1axMcff8zYsWN5+umnWbduXaXMMd26daNbt24UFxdjsVjw9fWtUQlwOBycPHmSJ554gqKiImbOnMmFCxeIjY11ehGCgoKYNGkSEydOJDs7Gy8vr9vKYf9XSKJA88CbK/keEhLC2LFjK6UU1Wg0zpgVh6N2l1LwTc67srIyFixYwM6dOytdnzFjBidOnHCmZKsJGkmkqX/dcrTXFZIk0blzZzp37syhQ4ec1sigoKDbbtvV1ZVhw4bx9NNPs2rVKqZPn86GDRuqXUOyLJOfn89nn33G4cOH+eyzz2jWrBmDBw92BquLokhsbCxLly7FaDTy+uuvM2DAgBozHjkcDgoLC3n++edJS0vj9OnTnDt3joYNGzqpRm5ubrz++uu88sorzpzbtVlHTSYTy5cv57333qNRo0acOHGCWbNmMX36dOc9Xbt2pWvXrhQWFmKz2fDx8al397jArcm9Dz74AIvF4pzvKpWqUtxMbTBopZvOXHX48GEmTZrk/KzT6Xj33XeZPn06ixcvrtXLqJEEIhvU73yH8jSQY8eOxWq10rZtW5o1a8aECRPqRba3a9eOb775hpKSEsLDwxk3blyNAbRms9mZoWX06NH06dOHS5cuERYW5hyLh4cHY8aM4Z133uHkyZMsW7aMGTNm1CjbCwsLmTFjBosWLWLmzJn079+fJUuW0KdPH6B8vcfFxREXF0dRURF2ux1vb+9avfYnT56kb9++6HQ61qxZw6FDh4iNjXUaxcLDw/nwww+ZOnUqeXl5+Pn51ZvSC9DI++aKhVmtVpYuXcovv/xS6fonn3zCoUOHGDVqVK2/16lFom5SzgYHB/Pxxx9TXFzMqFGjaNWqVY1ZAWuDXiMR1bD+53xAQABbt26tdCAfPHgwTz/9NJIk0aRJE3bu3MnOnTvRarXcd999Tnpnq1at2L17t5O1IIoib731Fj179uT8+fNEREQQGxvrnEM9e/bk4MGDHDlyhIYNG9KhQ4e7WljzjioDf14okiShVqvLX5QgYLFayc3Px2wtw/F7/QFBFBElCUUoP9AFBTfiueeeJTw8HL1eT/t2HWgQEIhdkRFELW269KDJ1s1cOLQHW6mZ4lIrGkGkqLCYvJwCNFoXFEFA9ArgufemkpueypE9O0g+fYz8rHQUmwWtCI7SMiRkBEUFAlhsNuxGC7a0QnQqIxaLhZJiE3oXHVabg7NnLxJ2/2DCWsRiVyRElYSCwu+MprsGs9ns3DAqqBkdOnSgf//+ty2gbxdqtZqmTZty8uRJkpOTa7W03ywMBgMdOnRg48aNPP3001WKdezYsYNdu3Zht9udvEygxlRtkiTRrFkzQkNDOXfuXBVuekWO6kWLFqHX69myZYsz+0pNXomK4LjqoCgKycnJrFy5kq+++oro6GjGjx9Pp06danxmURRvO9VcfSE3N5dFixZhNBqd8+zee++tlGazPqHRaBg6dGiVXN4dO3as9Z3dLQQFBREUFMT06dP5/PPP661dQRBo3bo1DofDmSHlz8jJyWHjxo0cP36ctm3bMnbsWOeBPCwsrNo2DQYDw4cPZ/78+Tz00ENVKF1paWmsWrWKJUuW8MILLxAfH4+np2eN71mSpFoVIIvF4qw9cPDgQV588UUmTpyIRqOpQpGqQH0UXKpPKIrCF198QVpamlMRj4qK4rHHHrtjm3WrVq0qZecSRZGmTZtWOaj9X0Cj0dC+fXuSkpJITU2tMUParcDNzY2uXbty+PBhhg4dWml+ms1mtm/fzt69ezEYDCxdutQZn1WTtV+SJCIjI1Gr1WRlZVVRooxGI5s2bWLVqlV4enqSmJjojOuqiZJXWzpjRVFISkpiyZIlrFixgvvvv5/33nuP2NhYevasGrMFVKKV/l9CrVYzePDgKpWu27ZtS2xs7B3pMysriyVLllBaWsqQIUPYsGEDAwYMqJeCmvUBNze3KhSdv8YEuru7V+sdbNCgQRXvfYVRs4JJ8Fc0bty4XimRN4M77hmosOxUZGPw9PQkJiYaBQclJSUU5OVjNppAEFBkGbVKRcPAAMLCwujfvz/3338/Wq0WPz8/XHQGZEBSqZAVGTdvP+6Pe4iLiQfRaUVMZSbKTA6yrQUYTadJz7OAIhHROpaQmPZEtY0lpnMX0lNTOH3oV37ds5PLJ89iNVox6AT0OjU2wCTbKSt1kG02olZseLtoUEsiisOB0VRGfpaJoF6uaFzcKFOE3+MaZG45WOAWcfHiRWcQSoXQdHG5cXGRu4UKF/L69ev517/+Va9Wj379+jFr1ixOnTpF27ZtURSFI0eOMGXKFKKjo3n88ceJjo6+qcql3bt3Z9++fZWCiq9fv86//vUvjh07xowZM+jatettFfqw2WzMnTuXFStWkJycTHx8PKNHj64Xys/dwoULF9DpdDz//POV6kncKVSkFU1KSnJmmXI4HHTp0uVvMdd9fX3x8/Nj69atnD59usY0nbeCxo0b4+3tzeTJk1m1ahWCIGCxWFi5ciVr1qxh6NChjB07lsDAwDq/i44dOzJ//nzn2oHyd7x69WpmzpxJs2bNWLNmDc2bN7+tNZuRkcH48ePZvHkzDoeDb775hu7du9c5P//fBSUlJSxbtox169Y5D/9/9oTdCeTk5PDrr78C5Z6xU6dOMWHChNui49QnevXqxYYNG9i/f3+9KgMAgwYN4quvvuLatWvOVL0HDx5k5syZtGrViuHDh9OkSZM6y3aDwUBgYCCHDx+upAycOXOGCRMmcPz4cWbPnk23bt1uq5JyUVERn3/+OevXryc1NZW33nqLV1555W+n3NYEh8PBhQsXOHXqFIqicPnyZWw2G126dLljfZ49e5bg4GBCQkLYv38/gYGBLF++nDfeeOOO9fk/VI+7FkAsCILTO+Dq7k54k0jy8vPJSE/HYrGg0WrwcHWjafPmtI1tT69evWjWrNkfUeyCQHnNMqG83LoCiqDCu0EAaLSUFZVitzooVhyoRIV8YzEFpSIe3r706tcPjcEFh+zAPSgUj0ahNO38AH1GvEHSbwc4lXiI1NSLlJntGE12rNkZXLlwBheNCg9JRKvXo5I0lJitFFttSCo7xw7/ytDSIrQevoiUZxVVBBlFkBBuPYb4puDv7+/kmVds2ncj6ryuaN++PTqdjoSEBM6fP1+vQTC9evXitdde49tvv8XFxYWlS5eSnJzMf/7zn1su0X3vvfcyceJEsrKysFqtfPPNN3zyySf06tWL7du33xYFpKioiCNHjjBmzBiuXr2KwWDgk08+4YUXXvhbHGhvBp6ensiy7KT9wZ2ddxqNhkGDBjmtL7Is07FjRywWyx1VQuoKnU6Hl5cX3t7ezJs3jw8//LBWyszNwNXVlXbt2nHy5Ek2btzorFwZHh7Ot99+W6eia3+FSqXipZdeYt26dYSEhHD58mXGjRvHuXPnePPNNxk1atQtc5btdjsZGRmsXr2aSZMmodfradu27S2P9e8Ag8GAp6cnVqvV+XeVJOmOrtsWLVpUkpdbt27lypUr9ZY04HbRsWNHvL29+e677+jXr98tUTtqwsMPP8x7773H999/T9++fZk3bx5ZWVm8//77tyTbRVGkX79+vPnmm3Tp0gWj0ciCBQtYvHgxAwcO5MSJEzVmAroRZFmmqKiIAwcOMGnSJJKTk51y4LHHHvuvku1qtZqHH37YWRFYlmXuv//+OypnPTw8yM3NJSIigoSEBJo2bcru3bvvSF//Q+24azEDgiA4Dw8atQa9Xk9I4xB69upF37598fLwJDSkMQGBQXj5+OLq6upcSOWBFiBKIgoCiqwgCuBA4eLly5QYTQiKgiQJSFotCjJFRhvoXDF4etOiZQtARlKrkAEUAUGScPPy4Z4+D9KxZw8UHCiygGyFzMw0Rr/9BmcSfkXrokat06HVe3G9KAPKHHjqVGA3cfHMSaI7dUNUJOfhX7lLigCUb+rh4eFMnToVHx8fBEGgffv2fwuaEEBERAQqlQq1Ws3MmTMZM2ZMvWRJgPL51LhxYzZt2sTGjRv54IMP+Pe//31bhzAvLy8CAgJ48sknMZvN+Pj4MHv2bB599NEaq0vWBlmWSU1NZfv27Rw5coT9+/fjcDjo2rUr77333g0DvP+u8PDwIC0tjenTpzvXaefOne8YTaiCJpOVlYWiKJSUlDgL5PxdEBMTw9atW7nvvvtYtGgRr7/+er0oSHa7nejoaPbu3csrr7xC//79mThxYqXqvbeC4OBgzp49y/Dhwzl79iwPP/wws2fPvuX1WVZWRkJCAlu3buXYsWOcP38enU7HG2+8QXx8/H+tIgDlB/977rmH6dOnExAQgCiKNGnS5I7ShDIzMzl9+jRQPv8PHz5Mu3bt7khft4KK6rwNGzYkPj7+hoG5NwOj0UjTpk2ZN28eX3/9NTNmzKBHjx635YkJDAwkPDycwYMHYzQaCQ8PZ+HChfTr1++W/oayLJOSksKOHTs4fPgwO3fuRK/XExcXx7hx4+5K9pf6hsPh4Ny5c2RkZKAoitPQKMvV1w+oD3h4eLBs2TL27dtHRkYGp0+frlP19v+h/nHXlAEo1zxVKhVqnRovX0/Cw8JBVpBEAVEQUUkSDllBUcQ/qjEKwu++AFAUAVlRkAQFQZG5np7G2u/WU2q0oBFAp9chiwrmMismWUARHIQ2bUpgo0YoKIiigCwLKAjIlP+rEiWQRARRRlEE1C4qglz0DHnyaa6eTUSjkkGS6NGvP30M3sz/bBa+fnoaeuk58usumrbpgFbUIEggi5THDtwldcDd3Z2pU6c6P1ut1kqZLv6vUcEtdXNzY9CgQbz88stMnDjxtugdly5dYt68eSQkJNCsWTPCwsK4fPkyJ0+eJC4u7pbatFgs/PDDDyxfvhyz2UxiYiLh4eFMmDDhpvI9/xnnz59n9uzZXL16laZNm/Lrr79SUlLCG2+8wfPPP1+vlrS7jQYNGjBhwgTnJpGfn8+ZM2fuWH8Oh4OUlBSSksrrIahUKubMmVNv1vf6QJs2bfDx8aFBgwZkZGTw0ksv8eGHH94ypczhcLBt2zYWL16MSqVCFEXeeecdfvzxR+fnW8GVK1dYsmQJ27dvx2w2k5GRQY8ePZgwYcItjdVsNrNx40aWL1+Or68vV69e5erVqwQGBrJy5UpiYmL+62hB1WH06NFO5VOWZY4dO3ZHldH8/HwOHz7s/BwZGUm3bt3uWH83C1EUad26NZ6engwbNox//etfTJgwocYiiXVBUlISc+fO5fjx4+j1et555x327dtHSkpKjXz7G8FsNvPtt9+yZs0aZFnm+PHjREdHM23atFuOY6ugFRUUFNCwYUMSExOxWq28+eabPP/88/81tKC/QpZlLl265DxDqFQqPvnkk1v2mtQFvr6+zJw50ynPVCpVramO/4c7h7uqDDgcjnIBWl55BZVahSAr5WmglHIPgCSpkCk/9CsoiIjlFTnF8sM7yNjtNq5fS2X6tGkcP34MP7WCRi2ASqTIbCa3qAyHKKKSBDr37InO4IYkqkEBERlZdiCJYnkqUFGNHRkZGVChyDKC7KBZVFM8XfWIZbkIKj/C23SgzX29ySs2cmrPT4iyiSvnTpN1LZWwZuUCUAFkZKTyUsR3/H2WlJQwcuRIZ/YWu93O9evXnSn+6pOjf6sYMmQIixYtYuTIkSxcuJDx48ezZ88eBgwYQEBAAB4eHlUOCxUVq0tLSykpKaGwsJCjR4+yfft28vLyGDFiBFOmTCEjI4O5c+cyb948PvnkE1577TVeeOEFwsPD8fT0rGLxqcgyZDKZnBUzd+3axc6dO/Hy8sLX1xdJkli+fDnnzp1jxowZzvLovr6+uLm5VVFi7HY7JpOpPP6loICjR4+ybds28vLy6NOnDyqVirVr19KsWTPeeOONW1ZY/k5IT09nypQpZGVlAeWZYtLS0khISGD06NH1eki32WxkZmbSp08fmjVrxrVr1/D29q7XgPT6wD333ENBQQFJSUl8+OGH/PDDD8THx/PUU08RGxuLp6cnbm5uVQ7xsixjNpspLS2luLiY7Oxsdu3axZ49e4iKiuL999+ndevWrFixgqKiIj799FPeffddevXqRVxcnLOeyF/XusPhwGw2O+flmTNn2L59O6dPn6Zly5b4+/vTq1cvZ4GmsWPH8uyzzxIREVGntZOens7u3bv57bffCA4Opl+/fnz77bfodDruvfdepk2bVi+Zlf4OkGWZsWPHkpmZCZS/i2vXrtG4cWO+/PLL24oh+isURSEzM5OIiAiGDx/O+fPnkWWZyMjIv5XyC+XZTxYuXMgbb7zBmDFjmDBhAl26dCEuLg5/f388PDyq0M0URcFqtTple0UBpz179lBWVsaIESP47LPPOHr0KMuXL2fevHlMnjyZt99+m6effprQ0FC8vLyq3TMsFgtGo9E5PytqIPj7+zvX35IlSzh8+DBvvPEGzz77rFO26/X6KmuzIhV6xTgTEhLYsmULJpOJvn37cvLkSXbu3EmTJk1YvHgxHTp0uOPv/E7BZrORnp5Ojx49aNKkCVevXsXLy6vuhS1vETk5OXz99dcUFxcjyzKFhYUMGTLkhul6/4f6x12lCUmS5FQGVL93rQjy78dmAUWREQQJ0VnZUihXGn7f6OyKgkNxcPxoIovmzmXLTz/hJkmYUCGrtUSGN+XqqVOUOkClVtOle2/u79MXtUaLIKoABUEoD0Au71wBQUBChVg+SGQcKKKI2mAAgyvGkhw87QqSWoOo1tDv0afIysng8qmjWCnk4L49hIRHIGp1CEgI5XlR78o7LS0tpW3btowcORJBECgrK+PIkSPce++9fxsKRZcuXVi1ahVffPEFixYtYsGCBezevZsffviBsrIyZzxJReCzLMuUlJSgVqux2+3OytURERFMnDiRiIgI58EnKCgIT09PfvzxR95//32OHj3Kjh07+PnnnykrK0Oj0eDp6YlarcZqtVJYWIjdbkej0SCKonOzioqKwmAw0KNHDx544AH0ej3+/v5ERkayZcsWvvrqK6xWK7Is4+Xl5aQMFRUVUVpaiiRJaLVaRFEkMjKSRx55hMTERBISEkhNTeXxxx9n+PDh9UaR+r9GWVkZcXFxdO7cGUEQyMvL4+jRo8TFxdX7geXnn3/m1KlTBAcHc/78eRo1asThw4dZuXIlM2fO/FvQ4aA860SnTp2QZZmdO3cyYsQIunfvztatW1m6dCkOhwNZlnFxcXEekKxWK2VlZYhiucFDpVLh6+tL586deemllyoFi8bFxTFlyhQGDx7MsmXL+OWXXyrl+Pfw8HC++9LSUkpLSxEEwemN9fT0xN3dnZiYGMLCwhg9erSzHsCYMWNITExk586d/PLLL9WunaKiIqxWa6W1ExMTg7+/PydOnGDNmjV4enry5JNPMnDgwFui1f1d4XA40Gg0zJ07F0mSkGWZQ4cO0bZt23p/zsLCQubNm8cTTzzB559/TlRUFCqVii1btvDMM89UySj1f4mmTZvSqlUrXn31VVatWsXXX3/Ntm3b2LBhA2az2ZlOXKfTIQgCDkd50hCNRuOsrOrm5kZkZCRTp04lNDTUKdsraHBbt25l8uTJHDhwgO3bt2OxWLBYLOh0Ojw9PVGpVFgsFme6zwo5XGFkatmyJR4eHsTFxdGlSxc0Gg2PPPIIbdq0Ydu2bXz55ZfOWiUeHh7O4pPFxcWYTKZyWrNGg0qlokmTJjz++OMcOXKEnTt3kpWVxbPPPsuwYcPqPYj6bmPr1q0kJCTQpEkTTp8+TaNGjcjPz2fVqlV3VM76+/vz5JNPYrPZsNlsbNiwgdTU1DvS1/9QO+6qZwCoMqkEQfrT/8Vq7/kDCkajic9mz2b31i1IDgW7AA6Nll79H8XFw5Udh47jEFW4uXvxxLBn8W3YEOH36nZVrPVCxT/CH98IIg5RQaXRIEtqSi0OBJUanasrsiLgG9SIocNf5Ispk7iUdJ4NP26iRbv2tGwX64yLuFs0IZ1Oh9FoZP78+eVvR1Fo27Ythw4dIiIi4rZctvUFPz8/2rRpQ3FxMdOnT2fixIn079+fuLg4jEajU5BXWAZUKhVeXl7o9Xo0Gg1arRadTletl0OtVjN8+HDi4uK455576NSpEx06dMBoNGIymSgqKiInJweLxYKLiwt+fn64u7uj1WopLCzko48+IiUlhfHjxxMbG1slSCo4OJgRI0ZgMpmcY83IyHByKX19ffH29naOUaVSMWvWLA4ePEj79u1JTU1lwoQJ/5UZVGqDTqcjJSXFWeROURRiY2NJSEigXbt29ZrxZNu2bbz44ots2bKFt956C19fX2w2GwMGDKCwsLBerbK3i5EjR7J+/XpWrFhBz549iYyMJCIiApPJ5DzE5ObmOgv4uLi44OXlhU6nQ61Wo9PpauQv+/r60r59exYuXMjEiRN54oknnJZQk8lEVlYWJSUlKIriDGZ2cXFBq9Vy4MABpkyZQo8ePXj99dcJCAiolIlFrVbTsWNH2rdvT2lpKWazudLa0ev1+Pr64u7ujkajwcXFhXPnzjFx4kT8/Py4cuUKkZGRvP/++4SEhPxtFLT6glqtxs3NrVJF4PDwcC5dusS5c+fq1dtnNBrx9vbm+vXrtGzZklGjRiGKIvv27eP8+fN/K2UgNDSUoKAgZFlm0aJFvPbaawwZMgSr1VpJtpeUlCDLMmq12inbK+rhuLi4VEt502q1vP/++/Tr14+2bdvSvXt3Z/BvhXcqJyfHGdTt5+eHq6srWq2W3Nxcpk2bRklJCe+++y4tWrSoorSFhYURHx/vlO1Go5Hs7GxnPFKFbNdoNOh0OmRZZvr06Zw+fZrmzZtjMpmYNWsWbdq0+f9Ctu/atYtnn32W3bt38+qrrxIYGIjNZuOxxx6joKDgjtFaXV1dq8zpc+fO3ZG+/ofacdeVgduCAoosU1RchE2W0Wg06N0MvDzqFR6I68v48eOxWC3YZAeNGjembWwssixzs2yZcmuGCwaDG/kKyIqIqFYjCAoqSSSiSRT/HPse/54wgXMpKaz//nuioqPR6X8PahTuTtyATqejQ4cO2O12p/WqcePGyLL8twnYc3V1xdPTk/79+7N48WI2bdpEv379UKvVTm7l7eRY9vf3Z+HChUyePJkPP/yQhg0bOnP8+/v7V6KTlJaWcvHiRbZu3crRo0cZOHAgX3zxxQ3513q93qko/DXHsN1uJzU1lS1btrB27VoCAgIIDw8nOTmZ1atX/39DlfgzDAYD0dHRlJSUOOddxSGwvi2lFRa87OxsduzYQcuWLcnIyMBoNP5t5ngFevTowfr163n88ccZOXIkc+fOJTAwEIPB4LTa3+p8EASBxx57jPj4eFavXs2jjz7qVB58fHyqzMuMjAwOHz7Mpk2bUBSFxYsX39DlX1Ex28PDo8ragXKrdXJyMj/99BOJiYl07NiR5ORknn32WZ599tlbeq7/FlTIWavVilarxd/fH29vb2w2W732o9VqKSgowGw2s2/fPjp16oRGo2HPnj13NMXjrSAkJITCwkImTpzItGnT2Lt3L926dauUdjUgIOCW2/f19eXDDz/kiy++YMKECXh6ejrnZ0BAQKVCUMXFxaSkpLB582ZOnjzJ448/zsCBA2tNPyoIQqW1+dfaHHa7nUuXLrF//342bNhAREQEoaGhFBQU8M0339yw0vp/E2JiYtiyZQtFRUXs2rWL1q1bk5mZSUlJyV2Vsx06dPivplv9N+O/TBmQcTUYeDCuH6dOnMBUaqR7xwfo/8RjpF2/TuKJE9gBSa0mNDwCvcEVlVp307QdQRDQ6XS4unmiiCokrQ61TocCSKKIgkjjJlF069OX0xcuknLlMjaHHbViRxQkBO5Oek+DwUBkZCTLli3DZDIRGhpKz549/1bWUpVKRfv27fnll1+cB3aNRkPfvn3rrY977rmHy5cvM2vWLMaPH1/Fwl9SUsIvv/zCvn37cHNz45577uH555+/LQu23W7nyJEjrFu3DlEUCQkJISIiAofDQc+ePYmLi7upGgf/TaigSm3evBmAli1bMmjQIOfz3qgC8c3giSee4LvvvsNkMpGYmMjVq1cpLi6mb9++fxsqXAVUKhVhYWE0bvz/2rv3sKqq/PHj7733gXMOIBflIqiAtwEVUxHNuGgqamoq42hjasiUOmNWWqJGknezr1lj6qRdLHN+OpMzUo1WZuOMWpoioKJ4IUECBBHkfjvAOfv3B3LS6YaCcJD1ep6eJ/XssxawWWd91l7r8/HiiSeeYO3atURFRTXagTidTsfrr7/OmjVrkGWZiRMn3vbEzGQykZyczO7du8nJyeE3v/kNf/zjH+ndu/ddpwqF2olWTEwM8fHxuLq64ujoaH66EBUVdc/3FVuCAQMGsHXrVgoKCnBycmL27Nnm4lSNycnJiWHDhhEfH0/Xrl358ssvURSFqqqqBk2s7wWdTkdoaCjr1q3jT3/6E3/+858xGo0/Kg7YEEFBQSQnJ/Paa6+xZMmSH43txcXFfPrpp8TGxuLo6EhgYCDPPvtsgyawBoOBb7/9lj179mBra4uXlxfdunVDlmVGjx7NsGHD7ruxfdKkSfzjHznfNHAAABsCSURBVP+gqqqKxMREsrKyKCkpYdiwYc3dNaGJtKg7WpEVDIZKhg57mL/u/CtXUi7T58EAdPa2uHt2wqtbV7LyrmOj1aK1sUFSFGpqjFhpNHe0UF8XDNi3bYfBJIPGBmutHoy12YIkjYKq0eLeyYvymhpkayskjYxJNdUehm4ixcXFRERE8OGHH+Lt7U1MTAzbtm0jMjKyyfpQH4MHD2b16tXMnDmTqKgopkyZwqVLl5g7d26jHXKeNGkSpaWlDB06lE8++QR3d3dKS0v5y1/+wo4dOxg7diyRkZG4u7s3aGJkNBo5fPgwr7zyCnq9niVLlqDT6YiMjGTUqFE888wz5j2y96uUlBRiYmJYvHgxNjY2bNy4kZ07dzJjxoxGb8vW1paIiAhMN6uU38oSDsjfSpZlBg0axH//+1+WLFmCLMtMnz6d7du3N9rE0dXVlejoaBYsWEBZWRkREREAxMfH8/rrr5OZmUlkZCShoaHodLoGpR/Nz89n69atvPPOO8yaNYuXXnqJ3bt3s2/fPtatW0fv3r3vu0nRT1FVlYiICBYvXsygQYOIi4tj8+bNrFq1ylyRuLFoNBqGDBlCcHCwxd/vUFsgbNGiRTz33HOsWLGCCRMm8NxzzzF9+vRG6W/dVtA333yTiRMnsmPHDlxdXbl+/TpvvfUWO3bsICIighdffBE3N7cG3Y8mk4kvvviC9evX0759e6KioigqKmLhwoWEh4fzhz/84b4d221tbZkxY0aLGGeFe6PFjeS2NjZ4dvKkX78+XLmSQkFRERorDXYODiyOepE/zp5NzvXrXLhwgeKiYtq2a2e+tu4m/7lf5rp/V1UVRaOhjX0bakwq1SYVFQlZI4Eqo0oqJlVFkhQqDdVYa7XIkoJG0TRpDeKMjAwGDhxoPhsQFhbGW2+9RXV1dYMmvI1Np9OxYMECVq9ezZYtWzhw4ACrV68mOjqa8ePH07t37wanL5MkibCwMPLz83n44Yfp1q0bRUVFTJ8+nUOHDt31U4C6LAupqanExcVx7tw5nJ2deeWVV7Czs2Pv3r0kJiayatUqBg0adF9+UPyv3NxcgoKCzFtTpk6dysaNG+9JMAA/JB9oCQYMGMD777/PxYsX+e1vf4urqysLFy4kNDSUYcOG0blz5wbXH3BwcOD5559n9uzZ/PWvf0WWZby9vXnqqacIDg6+qwmqqqoUFRWRkZFBUlISCQkJXL16lcGDBxMbG8upU6dYtmwZ7u7u7Nq1y2Iq4TaF8vJyampqGDZsGIqiEBISQmxsLKWlpY0eDNRpKfe7tbU1mzdvZtu2bSxbtoxDhw6xcuVKVqxYwfjx4+nZs2eDC1ZJkkR4eDilpaXmTEVGo5Hf//73nDlz5q6rBhsMBq5evUpqaionT54kKSmJ9u3b88Ybb6AoCnv37iU9PZ133nnHIs7f3WstaZwVGl+LCgZMRhOSrKLT6QgJDuGjf/yD1LQrlFZWYG/ngN8DDzBrzhzefP3PXLxwkX8f/DdhYWEoWg2yLKGqqvmQ6k+pLW5Wm8lIlmQ0VjqMkgZVU5uNyGhSkYw1oJgwmUwknU9Ca23NuHET0FhZY1Sl2mxFNM0RYi8vL7Kzs9m6dSseHh4cPXqUHj16WORq3dixYzl48CBHjhwhNDSUpUuXEhsby1dffcX777/Pgw8+yKhRo3609/mXVFdXk5ycTHx8PHFxcVRVVeHp6Ul0dDR5eXkkJiaSm5tLeno6zs7O9Z6ol5eXc+rUKWJjY4mLi8Pd3R0vLy969+7NlClT0Ol0fPDBB6SnpzNixAjmzJmDvb393X5rWhxPT09zJht7e3s+++wzJk6c2Nzdsgh2dnbMmTOHyMhI/vnPfxIUFISPjw8HDhzgzTffRJIkxo4dS3Bw8B1NkgoLCzl16pR50uLq6kp4eDjOzs4kJiZy/fp1rl27RlFREa6urvV6T5PJREZGBnFxcRw/fpwbN26YtzlNnjyZ7t27c/78eSIjI/H19eWZZ55pFZOi/6XX6/Hx8eG1117Dz8+P8+fPo6rqXU9C7zejR4/m8OHDnD9/nr59+7J8+XKOHz/Op59+ynvvvUdgYCChoaG4u7vXewyurKzk4sWLnD59mpMnTyJJEp06dWLBggVkZ2dz6dIlcnNz+f777+nVq1e937e4uJjTp09z/Phxzp8/j6urK97e3gQEBBAREWHOGpWXl8fo0aN57rnnxM/5PpJdUsLbcXHoLWixtDHFZWXd9bWWN2v8BZJcO9lWVZURI0fg16MnSWfPcTUjE4eebXFwcOKZp58l//oN3n//fZYuWUZX76708w9Ap9NgNBp/MfKtS/FnMplAkrC1d0Bn6wQaHUi1VYYlWcaERFVFKV99uZ/QYcMZO+ZRJI2CUQVZNacouufs7Oz429/+xsaNG7lw4QIjR45kzJgxFrk6rdFomD9/PuvWrWPgwIHY29sTEhJCSEgI+fn5vPfeewQHB5v3ofbt2xcvLy8cHR1RFIWKigry8/O5ceMGZ86c4fTp05w5c4ZevXoxbtw4Zs+eTc+ePW9bdTWZTOzbt4+FCxdy4cIFBg8eTEhICB06dMDFxQW9Xk9FRQU5OTlcuXKFCxcuEB8fT0pKCmPGjOHRRx9l69at5g8Dk8nEZ599xsKFC3nhhRd4/vnnLeoJTFPp0KEDCxcu5O2336a0tJQnn3yShx56qLm7ZTECAwMJCAhg27ZtPPvsszg7OzN16lSmTp3K6dOnWb9+PZMnT+bBBx8kMDAQPz8/czYUgIKCAoqLi0lOTubChQt8++235OXlMWbMGMaNG8ecOXNum6A8/vjj5OXlsWnTJl5++WXatWvHkCFD6NOnD25ubjg4OCDLMgUFBWRlZXH58mVOnTrFqVOncHZ2ZtSoUUyePJmAgADz7091dTWRkZEkJyfz7rvv0rFjx2b5XloCWZbZsmUL77zzDvv378ff35/w8HCLXHRpDoqiMGbMGLZv386GDRuwtbVl+PDhDB8+nKysLN59912CgoJo06YNQ4cOpU+fPnh6euLo6IgkSZSVlVFQUGCuunzmzBnOnTuHv78/Y8aMYf78+XTr1u22z7XKyko++eQTZs2aRVZWlnlsd3Nzw8XFBa1WS1lZGdeuXSMtLY2kpCTi4uLIzs5m9OjRTJgw4bbfo+rqaj766CMiIyNZv349UVFR4ud7n7G1skKSJN5JSGjurtxTo7p1u6tTqy3qbpdlmZqaahRFpl3bdkTMCGfV6pUc/+YovXo8gKqqaBQNM2fOIjszm8/27eX/1v4fa15Zi08PXyRJMq/8/5RbtwkZjTWUl1dgkmQUKy3W1jpkaq83VBv4/NNPKMy9wYQF45ElGVWtzZevNuFGoeLiYnbu3GnOsnDp0iUcHBwICgqyyIDA09OTXr168cEHHzB37lzzYNu2bVsWLVrEokWLuHLlChcvXiQ9PZ34+HjKy8vNaens7OxwdXXlkUceYdasWXTu3PkXV1dlWWb8+PGMHz+eoqIizp49S3JysrlicV3edHt7e9zc3OjXrx8vvfTSbfmuoXZbzJEjRzh27BharZYDBw7ck8ODLUVOTg6HDh0ypxU8ceIEGo1GZIG4RWRkJC+++CLx8fH079/f/Pd9+/Y1V7pOSkoiNTWVjIwMzp8/b853bmNjg4ODA126dCE4OJg1a9bQoUOHX/yddnZ2ZsWKFSxbtoyUlBQuXLhAZmYmmZmZlJeXo6oqtra2ODk50a9fP8LCwvD29qZdu3bm91VVlcTERA4fPszRo0cZP348r7766n1VM+Bubdu2DVVV6dWrF4WFhRw4cIDQ0ND7Iq1kYwgMDOTgwYNs2LCBZ555xjy2e3h4sGzZMqKjo0lLSzPfl7Gxseb7UqvVYmNjg6urK48++ihz587F09PzF8d2nU7HlClTmDJlCjdu3CApKYmLFy9y+fJlEhISzPVkHB0d6dChAwMHDmT58uV4eXmZA15VVcnKyuLrr7/m2LFjuLi4cP78+RZdHV74eY9060bqvHnN3Q2L1aKCAVVVkeXaSbeESujwUP7fjg/55vBhwmfMxFpngyLJeHb05Ok5c/g+9Qpxx2PZumULy1auwMnJ6Rc/UOuCBZPJRGlpGekZGeQXFdPD7wF0NraosoyxysDFi5f48L336NyxA716+CJLMqabsViNCTRy02wTsrKyomfPnkDtqnVSUhInT54kKCioCVq/cxqNhhkzZrBo0SK2bt1qzqF9q86dO/8oxVtjcHBwIDg4+I7S85WWlrJ7924OHTpEQEAAM2fOpFu3bq3yacCt9Ho93bt3x2AwYDQa2bdvHy4uLiIYuEWbNm2YPn0669atY9OmTT/auqPX6wkICCAgIKBR25Vlme7du5sLitWHqqqcO3eOt99+G6PRyJgxY5g2bZqYFN3C19fXfLjy2rVrHD16lOHDhzd3tyyGVqslMjKSBQsWsHv3bqZMmXLb2K4oCl27dqVr166N3na7du0YPHgwgwcPrvc1JSUl7Nixg9jYWB566CHmzp1Lly5dxNMAodVqcXd+bWEyFZPRiIuzC4ODQzj4769IPH2GgAcHoWJCkWX69+/PiuXLmTP7j+zZswf3jh2YN2/eL6421AUCsiTx1VcH+O+hw7i0b8+EiROx0mox1tSQm5fLxo0byUj/nhl/eBIXZxeMNUawkjCpUm3R5Cb6Xuj1ekJCQsx/7tu3Lxs3bjTnwrZE9vb2vPXWWzzxxBN4eHgQFhbW4AOVjclkMlFZWcm//vUv1q1bx/Dhw9m0aZPF5bRvTnXpWaH2d6bu0N20adOauWeWQ5IkAgMDKSgo4PHHH2fXrl0Wl5e8urqa3NxcXn31VeLi4li5ciWhoaHN3S2LdOsCS1VVFampqXd0PqM1cHR0ZPPmzcyePRsvLy8CAwMt6gm10WiktLSUPXv2sHbtWqZNm8bGjRvF2C4ItLBgQJJMqLXZ/pEUK7RWEn17PMDF2HgSjh2nZ08/2rRpg6TISIrMoJAgHo8IZ/vWrWzZuIH+Dw1kyMNDsUIGVaJGAtlYu6avmoxIqomy0mL2fhzDmxv+zAM9/VgcvZRO3X+DhAmppoLs9GS+S4jFoNEzaNhIrPS2INU+rajbWNJUw19hYSEffPABUDspy83NpUuXLhb/6FqWZV577TXWr19PQUEBU6dObfatCAaDgYSEBE6cOEFKSgoeHh7ExMS0+DLz90JOTg779u0zVxZNSUlhxIgRzd0tizR27FgkSWLNmjU89dRT9OnTp7m7xNWrVzl+/DiJiYlcu3aNkSNHmrNjCT9t8+bN5voZxcXFaLXaVpU0oL70ej3R0dG88cYbpKWlmYvjNaeKigpOnjzJiRMnyMjIwMvLi8OHDzda/Q9BuB+0qGCgdpqtoqJiBFRZxbF9WwwaI6fOniboyhVzZgFZlkGS+N2k35Fw9BsuXr5E0Y1cZLX2cHDtCr6ErNYgmUxIGCnIu8Fbf9nER3//O23btSM6Ooq+/f1RFRlDcR4JRw/x9X8PUV5STNjvpuDXuzfc3FrUHGvber3+tm0v1tbWdO3a1aJWY36Oh4cHUVFRbNmyhXnz5rF06dJmOaRYUlJCTEwMH330EX5+fowYMYLHHnvsjjJftDZ1TwYMBgOSJDFq1KgfVasVfjBq1CgcHBxYtmwZYWFhTJs2rVm2miUlJbFjxw5SU1MZOnQoEydOpHv37g1O/dgaBAUF1SaWoHbLi7e3d7NPci2Vj48Py5cvZ/PmzZw6dYolS5Y0SyHM3NxcYmJi2Lt3L/369WP48OGEh4fj4uJiUU+jBcEStLBg4AcSoCoSspXCxeTv0Hx/ldlVVeZAoPZ8gUzHTp0Y8vDDIKkogGqqAbl2DV9GRUIlPy+HosJCVq9YwbffHkWjaJj//Dz6+/cFGSRFoqCkhKNfH+HEt0f5/e8n8cKKNWg0mh8Cj2ag1Wpb9D5tFxcXli5dyscff8zMmTNZvHgxAQEB2NnZ3bOJeFVVFWVlZaSlpRETE8MXX3zB2LFj2bZtm8VV+LRUtra2rTLF5N1SFIWgoCD8/f2ZN28ecXFxLFq0iPbt29+zp3gmk4mKigpKSko4ceIE27dvp7CwkHnz5rFq1SqLf3poaW49BC78Ond3d1auXMn27dt57LHHePnll/H398fW1vaeje0Gg4GysjJSUlLYvXs3R48eZdy4cXz44Ye0u6XekCAIP9aiggEVbk7fQcKEXFNJJxcHgvr3pKBcuS0LjHRz646NXs/vJv+WjO+/Iz87m6ryMhR7BZBRTBJlhXn8/cNtJCd/xzdfH0JvY8uTT81i9NhxyEptoTHVZEQ1GLBGwsfXhykR4eaVvV/LUCT8urCwMHr27MmOHTvYv38/Pj4+BAUF0b179wYHWqqqUlxczOXLlzl79ixpaWlUV1ej0WgYNGgQkZGRYs+o0CT0ej2bNm3iwIEDbNiwAUdHRwYMGEBQUFCjbDmpqakhKyuLS5cuce7cOfLz86mqqsLDw4NVq1bh5+fXCF+FINSPoig8+eSTDBgwgN27d/P555/Tq1cvAgMDG6X4nqqqFBYWkpyczNmzZ8nMzMRgMKDT6Rg5ciRLly4VNQIEoZ5aZDAgA6gq1aVlVGTnMGnoUMq0bW97FGk+DCzLZF3LJvtqJg729pQUFaKzb1N7BkCVyMnK4siRI2TnXKd3n36M/+3vmDBxEhprPSgKKhImowlFsaaswsD4SY/R0bvLj9oQ7p4kSfj4+LBy5UoyMjI4duwYK1asoKSkhBEjRjBixIg7yuJTVFTEuXPnSEhI4MiRIxQWFtKvXz8GDBjA5MmTcXNzw9HRUWSOEJqcVqtl3LhxDBkyhOTkZPbv38/atWvx8/Nj9OjRBAUF1TuLj6qqpKWlcebMGY4dO0ZCQgJt27bloYcewt/fHy8vL5ydncVZAKHZSJLEAw88QI8ePUhPT+frr78mKioKk8nEiBEjzFW56zMWq6pKfn6+eWw/fPgwpaWlDBw4kIEDBxISEoKzs7O5No0gCPXXwmZDtWcG6v7PaDJx5fJlbBSF/iHBaDSa23IIq6oKqoq7hztdunTBYDBQVWW47R2LS8vJKywh9JGxzPrTHNp38AQkjDcLj6lIyFZWODi7MfyRRxkQEoRsVXvYtW47kngy0Djq9uJ6e3szdepUUlJS2Lt3L9HR0WRmZuLl5YW7uztOTk7odDp0Op350XBdgZn09HSqqqro06cP/fv3Z9myZfj6+oqJv2BR7O3tzalFX3rpJf7zn//w5Zdfsnr1avR6PZ07d8bd3R0bGxtsbGzMxZkqKyvJzc013+tubm7079+f4OBgFi9eLLZDCBbJysrKnFo0PDyc5ORkPv30UyIjI7l+/Tre3t64ubnh5OSEVqtFp9NRWVlJeXk5JSUlXLt2jYyMDFRVpU+fPvj7+7Nu3Tq6d+8uPnsFoRG0sBnSDyW9VECx1qLY2FBaWoizR4cfrdBLNw8Kd+jUialPhBMXF4ck137J0s13atPWlSf/9CzDQ0Nxae8OsoIJkGQFJNXcos62DYEPhyLrtNQoGqxu/r0YiO6drl27Mn/+fObPn09FRQXZ2dkUFRVRUlJCVVWVuWiYVqvF1taWNm3a4OLigoODg/i5CC2GLMuEhoaa03rm5eWRm5tLcXEx5eXlGAwGVFVFp9Oh1+uxtbXF0dERV1dXi00hLAg/R5ZlfH198fX1BWrruWRnZ1NSUkJJSQnV1dVUV1djZWWFVqvFzs7OPLbb29uLsV0Q7oEWFQzU5RIyIYEsI+m1OHXqiJODD7LNz6emlJHx7d2bDt6dsbKz/eHdJPDs3BmPTt7IioKq1j13uLW9m//JEopOh0mSm7TKsFBLr9fTpUuX5u6GINxzzs7OODs7N3c3BKFJ2NnZ3VGRPEEQGl+LCwaoOz6sytSgoWf/B9FaSRiNKspPfjUSEhokRcbe2ZkaVUVCAyhUyyBbyVhrJFBNSBIoqglzSKCqKJIGowQmyYSsmpBU0KhNVGJYEARBEARBEO6hFhUM3KwMAEjIkoTOSodWo0FSjUjy7YdLzY8SVRUUBaTaA0WKLFG3SUi6+c+SBJIs116jqnDrZiSJ2gPLkoKkSKCKKEAQBEEQBEG4P7S4YODWiTxISJIVSL+QZUaSaoMB89W3vxuK/OPX3/6KW66R63YXCYIgCIIgCEKL1yTBQGZmJvHx8U3RlEX77rvvzFUsBUEQBEEQBKG53fNgoEuXLri6unLkyJF73ZTFq66uZsKECc3dDUEQBEEQBEEAmiAY8PX1ZcmSJfe6mRZDpEUTBEEQBEEQLEWTbBMSFXoFQRAEQRAEwfK0sAPEQnFxMZ9//jnW1tb1en1aWhr29vb3uFfC/a64uJiDBw/i4uLyq681mUykpKTg5+d31+2ZTCYSExPZu3dvvV6fnJxMZWXlXbcnCP/rwIEDODg41Ou1cXFxDW4vLS2t3vc7QElJSYPbFFq3Ox1nU1NTKS8vb1Cbubm57N+/Hzs7u3r17/vvv6djx44NalP4dSIYaEFkWSY3N5c5c+bc0XXinILQEJIkkZOTw4svvnhH1/Xt27dBbe7atYtdu3bV+xobG5u7bk8Q6kiShLW1NS+88MIdXefl5XXXbWo0Gr755hu++eabel8jSRLKzUx5gnA3JEli586d7Ny5s97XNKQgoizLpKSkMG/evDu6bsiQIXfdplA/IhhoQfz9/cnKymrydtMKC9GKD50WK62oiOoGZLHq0aMHFRUVjdijX/fVV181aXsAZdXVXM7P50YDV76E5nOttLTB79G+fXsOHjzYCL2pv6effpqnn366SdsE+C4/nzb1fMosWJ6M4mKMDRjb9+/f34i9+XWBgYFN/lki1I8IBoRfNX//fnQiGGixKo1GKqqrm7sbFu/MtWuEf/wxGnHIv8UqqKxkvI9Pc3ejxZi2Zw+KuN9brLLqakoMhubuhnAfkFRVVZu7E4JlMqkquWVlVNbUNHdXhAaSZZlO4uzIz6qsqSGnEVaVheZnp9XSVq8XxSF/QY3JRG5ZGVVGY3N3RWggSZLwrOfZFkH4OSIYEARBEARBEIRWSuT8FARBEARBEIRWSgQDgiAIgiAIgtBKiWBAEARBEARBEFopEQwIgiAIgiAIQislggFBEARBEARBaKVEMCAIgiAIgiAIrZQIBgRBEARBEAShlRLBgCAIgiAIgiC0UiIYEARBEARBEIRWSgQDgiAIgiAIgtBKiWBAEARBEARBEFqp/w+m1ZWzTiE5+AAAAABJRU5ErkJggg==;" vertex="1" parent="1">
          <mxGeometry x="30" y="140" width="771" height="110" as="geometry" />
        </mxCell>
        <mxCell id="KGkWQbCxPJ3QOzRnx_q6-28" style="edgeStyle=orthogonalEdgeStyle;rounded=0;orthogonalLoop=1;jettySize=auto;html=1;exitX=1;exitY=0.5;exitDx=0;exitDy=0;" edge="1" parent="1" source="KGkWQbCxPJ3QOzRnx_q6-2" target="KGkWQbCxPJ3QOzRnx_q6-3">
          <mxGeometry relative="1" as="geometry" />
        </mxCell>
        <mxCell id="KGkWQbCxPJ3QOzRnx_q6-2" value="Medical image" style="rounded=0;whiteSpace=wrap;html=1;" vertex="1" parent="1">
          <mxGeometry x="50" y="400" width="120" height="80" as="geometry" />
        </mxCell>
        <mxCell id="KGkWQbCxPJ3QOzRnx_q6-29" style="edgeStyle=orthogonalEdgeStyle;rounded=0;orthogonalLoop=1;jettySize=auto;html=1;exitX=0.5;exitY=0;exitDx=0;exitDy=0;" edge="1" parent="1" source="KGkWQbCxPJ3QOzRnx_q6-3" target="KGkWQbCxPJ3QOzRnx_q6-5">
          <mxGeometry relative="1" as="geometry" />
        </mxCell>
        <mxCell id="KGkWQbCxPJ3QOzRnx_q6-3" value="convolution" style="rounded=0;whiteSpace=wrap;html=1;direction=south;" vertex="1" parent="1">
          <mxGeometry x="190" y="430" width="80" height="20" as="geometry" />
        </mxCell>
        <mxCell id="KGkWQbCxPJ3QOzRnx_q6-30" value="" style="edgeStyle=orthogonalEdgeStyle;rounded=0;orthogonalLoop=1;jettySize=auto;html=1;" edge="1" parent="1" source="KGkWQbCxPJ3QOzRnx_q6-5" target="KGkWQbCxPJ3QOzRnx_q6-6">
          <mxGeometry relative="1" as="geometry" />
        </mxCell>
        <mxCell id="KGkWQbCxPJ3QOzRnx_q6-5" value="Dense Block 1" style="rounded=0;whiteSpace=wrap;html=1;" vertex="1" parent="1">
          <mxGeometry x="293.5" y="400" width="116.5" height="80" as="geometry" />
        </mxCell>
        <mxCell id="KGkWQbCxPJ3QOzRnx_q6-32" value="" style="edgeStyle=orthogonalEdgeStyle;rounded=0;orthogonalLoop=1;jettySize=auto;html=1;" edge="1" parent="1" source="KGkWQbCxPJ3QOzRnx_q6-6" target="KGkWQbCxPJ3QOzRnx_q6-7">
          <mxGeometry relative="1" as="geometry" />
        </mxCell>
        <mxCell id="KGkWQbCxPJ3QOzRnx_q6-6" value="convolution" style="rounded=0;whiteSpace=wrap;html=1;direction=south;" vertex="1" parent="1">
          <mxGeometry x="430" y="430" width="80" height="20" as="geometry" />
        </mxCell>
        <mxCell id="KGkWQbCxPJ3QOzRnx_q6-31" value="" style="edgeStyle=orthogonalEdgeStyle;rounded=0;orthogonalLoop=1;jettySize=auto;html=1;" edge="1" parent="1" source="KGkWQbCxPJ3QOzRnx_q6-7" target="KGkWQbCxPJ3QOzRnx_q6-8">
          <mxGeometry relative="1" as="geometry" />
        </mxCell>
        <mxCell id="KGkWQbCxPJ3QOzRnx_q6-7" value="Poolling" style="rounded=0;whiteSpace=wrap;html=1;direction=south;" vertex="1" parent="1">
          <mxGeometry x="530" y="430" width="80" height="20" as="geometry" />
        </mxCell>
        <mxCell id="KGkWQbCxPJ3QOzRnx_q6-33" value="" style="edgeStyle=orthogonalEdgeStyle;rounded=0;orthogonalLoop=1;jettySize=auto;html=1;" edge="1" parent="1" source="KGkWQbCxPJ3QOzRnx_q6-8" target="KGkWQbCxPJ3QOzRnx_q6-13">
          <mxGeometry relative="1" as="geometry" />
        </mxCell>
        <mxCell id="KGkWQbCxPJ3QOzRnx_q6-8" value="Dense Block 2" style="rounded=0;whiteSpace=wrap;html=1;" vertex="1" parent="1">
          <mxGeometry x="630" y="400" width="120" height="80" as="geometry" />
        </mxCell>
        <mxCell id="KGkWQbCxPJ3QOzRnx_q6-37" value="" style="edgeStyle=orthogonalEdgeStyle;rounded=0;orthogonalLoop=1;jettySize=auto;html=1;" edge="1" parent="1" source="KGkWQbCxPJ3QOzRnx_q6-13" target="KGkWQbCxPJ3QOzRnx_q6-14">
          <mxGeometry relative="1" as="geometry" />
        </mxCell>
        <mxCell id="KGkWQbCxPJ3QOzRnx_q6-13" value="convolution" style="rounded=0;whiteSpace=wrap;html=1;direction=south;" vertex="1" parent="1">
          <mxGeometry x="770" y="430" width="80" height="20" as="geometry" />
        </mxCell>
        <mxCell id="KGkWQbCxPJ3QOzRnx_q6-34" value="" style="edgeStyle=orthogonalEdgeStyle;rounded=0;orthogonalLoop=1;jettySize=auto;html=1;" edge="1" parent="1" source="KGkWQbCxPJ3QOzRnx_q6-14" target="KGkWQbCxPJ3QOzRnx_q6-15">
          <mxGeometry relative="1" as="geometry" />
        </mxCell>
        <mxCell id="KGkWQbCxPJ3QOzRnx_q6-14" value="Poolling" style="rounded=0;whiteSpace=wrap;html=1;direction=south;" vertex="1" parent="1">
          <mxGeometry x="870" y="430" width="80" height="20" as="geometry" />
        </mxCell>
        <mxCell id="KGkWQbCxPJ3QOzRnx_q6-35" value="" style="edgeStyle=orthogonalEdgeStyle;rounded=0;orthogonalLoop=1;jettySize=auto;html=1;" edge="1" parent="1" source="KGkWQbCxPJ3QOzRnx_q6-15" target="KGkWQbCxPJ3QOzRnx_q6-25">
          <mxGeometry relative="1" as="geometry" />
        </mxCell>
        <mxCell id="KGkWQbCxPJ3QOzRnx_q6-15" value="Dense Block 3" style="rounded=0;whiteSpace=wrap;html=1;" vertex="1" parent="1">
          <mxGeometry x="970" y="400" width="120" height="80" as="geometry" />
        </mxCell>
        <mxCell id="KGkWQbCxPJ3QOzRnx_q6-38" value="" style="edgeStyle=orthogonalEdgeStyle;rounded=0;orthogonalLoop=1;jettySize=auto;html=1;" edge="1" parent="1" source="KGkWQbCxPJ3QOzRnx_q6-25" target="KGkWQbCxPJ3QOzRnx_q6-26">
          <mxGeometry relative="1" as="geometry" />
        </mxCell>
        <mxCell id="KGkWQbCxPJ3QOzRnx_q6-25" value="convolution" style="rounded=0;whiteSpace=wrap;html=1;direction=south;" vertex="1" parent="1">
          <mxGeometry x="1110" y="430" width="80" height="20" as="geometry" />
        </mxCell>
        <mxCell id="KGkWQbCxPJ3QOzRnx_q6-36" value="" style="edgeStyle=orthogonalEdgeStyle;rounded=0;orthogonalLoop=1;jettySize=auto;html=1;" edge="1" parent="1" source="KGkWQbCxPJ3QOzRnx_q6-26" target="KGkWQbCxPJ3QOzRnx_q6-27">
          <mxGeometry relative="1" as="geometry" />
        </mxCell>
        <mxCell id="KGkWQbCxPJ3QOzRnx_q6-26" value="Poolling" style="rounded=0;whiteSpace=wrap;html=1;direction=south;" vertex="1" parent="1">
          <mxGeometry x="1210" y="430" width="80" height="20" as="geometry" />
        </mxCell>
        <mxCell id="KGkWQbCxPJ3QOzRnx_q6-27" value="prediction" style="rounded=0;whiteSpace=wrap;html=1;" vertex="1" parent="1">
          <mxGeometry x="1310" y="400" width="120" height="80" as="geometry" />
        </mxCell>
      </root>
    </mxGraphModel>
  </diagram>
</mxfile>
